<?xml version="1.0" encoding="UTF-8" standalone="no"?>
<svg width="2977.2px" height="4208.4px" viewBox="0 0 2977.2 4208.4"
 xmlns="http://www.w3.org/2000/svg" xmlns:xlink="http://www.w3.org/1999/xlink" version="1.2" baseProfile="tiny">
<title>Vibração Labial Descendente (2)</title>
<desc>Generated by MuseScore Studio 4.4.2</desc>
<path class="" fill="#ffffff" fill-rule="evenodd" d="M0,0 L2977.2,0 L2977.2,4208.4 L0,4208.4 L0,0 "/>
<polyline class="StaffLines" fill="none" stroke="#000000" stroke-width="2.73" stroke-linejoin="bevel" points="401.553,386.199 2764.6,386.199"/>
<polyline class="StaffLines" fill="none" stroke="#000000" stroke-width="2.73" stroke-linejoin="bevel" points="401.553,410.999 2764.6,410.999"/>
<polyline class="StaffLines" fill="none" stroke="#000000" stroke-width="2.73" stroke-linejoin="bevel" points="401.553,435.799 2764.6,435.799"/>
<polyline class="StaffLines" fill="none" stroke="#000000" stroke-width="2.73" stroke-linejoin="bevel" points="401.553,460.599 2764.6,460.599"/>
<polyline class="StaffLines" fill="none" stroke="#000000" stroke-width="2.73" stroke-linejoin="bevel" points="401.553,485.399 2764.6,485.399"/>
<polyline class="StaffLines" fill="none" stroke="#000000" stroke-width="2.73" stroke-linejoin="bevel" points="401.553,717.453 2764.6,717.453"/>
<polyline class="StaffLines" fill="none" stroke="#000000" stroke-width="2.73" stroke-linejoin="bevel" points="401.553,742.253 2764.6,742.253"/>
<polyline class="StaffLines" fill="none" stroke="#000000" stroke-width="2.73" stroke-linejoin="bevel" points="401.553,767.053 2764.6,767.053"/>
<polyline class="StaffLines" fill="none" stroke="#000000" stroke-width="2.73" stroke-linejoin="bevel" points="401.553,791.853 2764.6,791.853"/>
<polyline class="StaffLines" fill="none" stroke="#000000" stroke-width="2.73" stroke-linejoin="bevel" points="401.553,816.653 2764.6,816.653"/>
<polyline class="StaffLines" fill="none" stroke="#000000" stroke-width="2.73" stroke-linejoin="bevel" points="401.553,1344.05 2764.6,1344.05"/>
<polyline class="StaffLines" fill="none" stroke="#000000" stroke-width="2.73" stroke-linejoin="bevel" points="401.553,1368.85 2764.6,1368.85"/>
<polyline class="StaffLines" fill="none" stroke="#000000" stroke-width="2.73" stroke-linejoin="bevel" points="401.553,1393.65 2764.6,1393.65"/>
<polyline class="StaffLines" fill="none" stroke="#000000" stroke-width="2.73" stroke-linejoin="bevel" points="401.553,1418.45 2764.6,1418.45"/>
<polyline class="StaffLines" fill="none" stroke="#000000" stroke-width="2.73" stroke-linejoin="bevel" points="401.553,1443.25 2764.6,1443.25"/>
<polyline class="StaffLines" fill="none" stroke="#000000" stroke-width="2.73" stroke-linejoin="bevel" points="401.553,1675.3 2764.6,1675.3"/>
<polyline class="StaffLines" fill="none" stroke="#000000" stroke-width="2.73" stroke-linejoin="bevel" points="401.553,1700.1 2764.6,1700.1"/>
<polyline class="StaffLines" fill="none" stroke="#000000" stroke-width="2.73" stroke-linejoin="bevel" points="401.553,1724.9 2764.6,1724.9"/>
<polyline class="StaffLines" fill="none" stroke="#000000" stroke-width="2.73" stroke-linejoin="bevel" points="401.553,1749.7 2764.6,1749.7"/>
<polyline class="StaffLines" fill="none" stroke="#000000" stroke-width="2.73" stroke-linejoin="bevel" points="401.553,1774.5 2764.6,1774.5"/>
<path class="MeasureNumber" d="M415.232,1279.89 C417.112,1279.29 417.872,1278.97 418.832,1278.33 C420.712,1277.09 421.872,1274.89 421.872,1272.65 C421.872,1268.85 418.832,1266.29 414.352,1266.29 C409.992,1266.29 406.312,1269.01 406.312,1272.29 C406.312,1273.93 407.312,1275.05 408.832,1275.05 C410.152,1275.05 411.112,1274.09 411.112,1272.77 C411.112,1272.09 410.912,1271.61 410.272,1270.97 C409.872,1270.61 409.712,1270.33 409.712,1270.05 C409.712,1269.09 411.712,1268.09 413.592,1268.09 C416.272,1268.09 417.872,1269.57 417.872,1272.05 C417.872,1275.61 415.352,1278.97 412.672,1278.97 C412.552,1278.97 412.192,1278.93 411.752,1278.89 C410.592,1278.81 410.592,1278.81 410.352,1278.81 C409.472,1278.81 408.992,1279.21 408.992,1279.93 C408.992,1280.57 409.432,1280.97 410.152,1280.97 C410.352,1280.97 410.632,1280.93 410.952,1280.89 C411.512,1280.77 412.112,1280.73 412.472,1280.73 C414.352,1280.73 415.632,1282.41 415.632,1284.89 C415.632,1289.21 413.512,1293.37 408.672,1293.37 C406.432,1293.37 404.512,1292.25 404.512,1290.97 C404.512,1290.53 404.672,1290.37 405.312,1290.09 C406.472,1289.57 406.952,1288.85 406.952,1287.77 C406.952,1286.37 405.832,1285.29 404.392,1285.29 C402.672,1285.29 401.552,1286.65 401.552,1288.73 C401.552,1292.61 404.512,1295.05 409.312,1295.05 C415.352,1295.05 419.952,1291.01 419.952,1285.65 C419.952,1282.53 418.032,1280.77 415.232,1279.89 M430.186,1281.05 C430.866,1277.53 431.666,1275.33 433.186,1272.65 C434.986,1269.49 437.146,1267.89 439.546,1267.89 C440.786,1267.89 441.546,1268.37 441.546,1269.13 C441.546,1269.41 441.466,1269.57 441.186,1270.09 C440.826,1270.77 440.666,1271.25 440.666,1271.85 C440.666,1273.13 441.626,1274.01 442.986,1274.01 C444.626,1274.01 445.746,1272.81 445.746,1271.01 C445.746,1268.29 443.186,1266.29 439.626,1266.29 C430.706,1266.29 425.306,1277.93 425.306,1285.61 C425.306,1291.49 428.226,1295.05 433.106,1295.05 C439.106,1295.05 443.546,1290.09 443.546,1284.21 C443.546,1280.13 440.786,1277.29 436.786,1277.29 C433.986,1277.29 431.826,1278.49 430.186,1281.05 M435.506,1279.61 C437.986,1279.61 439.346,1281.33 439.346,1284.45 C439.346,1289.53 436.666,1293.41 433.106,1293.41 C430.546,1293.41 429.026,1291.53 429.026,1288.33 C429.026,1283.33 431.786,1279.61 435.506,1279.61"/>
<path class="MeasureNumber" d="M415.232,322.039 C417.112,321.439 417.872,321.119 418.832,320.479 C420.712,319.239 421.872,317.039 421.872,314.799 C421.872,310.999 418.832,308.439 414.352,308.439 C409.992,308.439 406.312,311.159 406.312,314.439 C406.312,316.079 407.312,317.199 408.832,317.199 C410.152,317.199 411.112,316.239 411.112,314.919 C411.112,314.239 410.912,313.759 410.272,313.119 C409.872,312.759 409.712,312.479 409.712,312.199 C409.712,311.239 411.712,310.239 413.592,310.239 C416.272,310.239 417.872,311.719 417.872,314.199 C417.872,317.759 415.352,321.119 412.672,321.119 C412.552,321.119 412.192,321.079 411.752,321.039 C410.592,320.959 410.592,320.959 410.352,320.959 C409.472,320.959 408.992,321.359 408.992,322.079 C408.992,322.719 409.432,323.119 410.152,323.119 C410.352,323.119 410.632,323.079 410.952,323.039 C411.512,322.919 412.112,322.879 412.472,322.879 C414.352,322.879 415.632,324.559 415.632,327.039 C415.632,331.359 413.512,335.519 408.672,335.519 C406.432,335.519 404.512,334.399 404.512,333.119 C404.512,332.679 404.672,332.519 405.312,332.239 C406.472,331.719 406.952,330.999 406.952,329.919 C406.952,328.519 405.832,327.439 404.392,327.439 C402.672,327.439 401.552,328.799 401.552,330.879 C401.552,334.759 404.512,337.199 409.312,337.199 C415.352,337.199 419.952,333.159 419.952,327.799 C419.952,324.679 418.032,322.919 415.232,322.039 M442.226,308.279 L441.066,308.279 C438.866,309.919 434.626,311.319 431.746,311.319 L431.266,313.079 L434.026,313.079 C436.466,313.079 436.746,313.159 436.746,313.879 C436.746,314.239 436.746,314.239 436.346,315.679 L432.066,331.679 C431.546,333.679 431.506,333.799 431.146,334.159 C430.746,334.559 429.906,334.679 427.786,334.719 L426.066,334.719 L425.866,336.599 L440.666,336.599 L440.906,334.719 L438.746,334.719 C436.146,334.719 435.586,334.519 435.586,333.639 C435.586,333.359 435.746,332.439 435.946,331.679 L442.226,308.279 "/>
<path class="InstrumentName" d="M284.389,1395.27 L290.039,1395.27 C294.539,1395.27 296.889,1394.92 298.939,1393.97 C302.439,1392.27 304.439,1389.07 304.439,1385.12 C304.439,1377.17 297.439,1375.22 290.889,1375.22 L273.389,1375.22 L273.389,1377.57 L274.289,1377.57 C277.139,1377.62 278.089,1377.77 278.489,1378.27 C278.789,1378.72 278.789,1378.82 278.789,1381.37 L278.789,1405.17 C278.789,1407.72 278.789,1407.82 278.489,1408.27 C278.089,1408.77 277.139,1408.97 274.289,1408.97 L273.389,1408.97 L273.389,1411.32 L290.189,1411.32 L290.189,1408.97 L288.889,1408.97 C286.039,1408.97 285.089,1408.77 284.689,1408.27 C284.389,1407.82 284.389,1407.72 284.389,1405.17 L284.389,1395.27 M284.389,1392.92 L284.389,1380.12 C284.389,1377.82 284.639,1377.57 287.439,1377.57 L290.639,1377.57 C295.839,1377.57 298.289,1380.02 298.289,1385.32 C298.289,1390.47 295.739,1392.92 290.439,1392.92 L284.389,1392.92 M315.333,1388.02 L306.683,1388.57 L306.683,1390.72 L308.483,1390.72 C310.383,1390.77 310.633,1391.07 310.633,1393.22 L310.633,1407.52 C310.583,1408.27 310.533,1408.57 310.333,1408.82 C309.983,1409.27 309.033,1409.47 306.883,1409.52 L306.683,1409.52 L306.683,1411.32 L319.333,1411.32 L319.333,1409.52 L319.133,1409.52 C315.783,1409.42 315.333,1409.17 315.333,1407.37 L315.333,1399.97 C315.333,1397.52 315.683,1395.27 316.233,1394.12 C317.283,1391.87 319.533,1390.32 321.683,1390.32 C322.983,1390.32 324.483,1391.02 325.233,1392.07 C325.983,1393.17 326.333,1394.67 326.333,1397.07 L326.333,1407.52 C326.283,1408.27 326.233,1408.57 326.033,1408.82 C325.683,1409.27 324.683,1409.47 322.533,1409.52 L322.333,1409.52 L322.333,1411.32 L334.983,1411.32 L334.983,1409.52 L334.783,1409.52 C331.483,1409.42 331.033,1409.17 331.033,1407.37 L331.033,1397.32 C331.033,1393.72 330.883,1392.82 329.983,1391.12 C328.733,1388.72 326.233,1387.27 323.233,1387.27 C319.983,1387.27 317.533,1388.77 315.333,1392.07 L315.333,1388.02 M348.48,1387.27 C342.33,1387.27 337.58,1392.72 337.58,1399.72 C337.58,1406.57 342.38,1412.07 348.38,1412.07 C354.38,1412.07 359.18,1406.57 359.18,1399.67 C359.18,1392.82 354.38,1387.27 348.48,1387.27 M348.48,1389.42 C351.98,1389.42 353.93,1393.07 353.93,1399.67 C353.93,1406.32 351.98,1409.92 348.38,1409.92 C344.78,1409.92 342.83,1406.32 342.83,1399.72 C342.83,1392.92 344.73,1389.42 348.48,1389.42"/>
<path class="InstrumentName" d="M284.389,437.421 L290.039,437.421 C294.539,437.421 296.889,437.071 298.939,436.121 C302.439,434.421 304.439,431.221 304.439,427.271 C304.439,419.321 297.439,417.371 290.889,417.371 L273.389,417.371 L273.389,419.721 L274.289,419.721 C277.139,419.771 278.089,419.921 278.489,420.421 C278.789,420.871 278.789,420.971 278.789,423.521 L278.789,447.321 C278.789,449.871 278.789,449.971 278.489,450.421 C278.089,450.921 277.139,451.121 274.289,451.121 L273.389,451.121 L273.389,453.471 L290.189,453.471 L290.189,451.121 L288.889,451.121 C286.039,451.121 285.089,450.921 284.689,450.421 C284.389,449.971 284.389,449.871 284.389,447.321 L284.389,437.421 M284.389,435.071 L284.389,422.271 C284.389,419.971 284.639,419.721 287.439,419.721 L290.639,419.721 C295.839,419.721 298.289,422.171 298.289,427.471 C298.289,432.621 295.739,435.071 290.439,435.071 L284.389,435.071 M315.333,430.171 L306.683,430.721 L306.683,432.871 L308.483,432.871 C310.383,432.921 310.633,433.221 310.633,435.371 L310.633,449.671 C310.583,450.421 310.533,450.721 310.333,450.971 C309.983,451.421 309.033,451.621 306.883,451.671 L306.683,451.671 L306.683,453.471 L319.333,453.471 L319.333,451.671 L319.133,451.671 C315.783,451.571 315.333,451.321 315.333,449.521 L315.333,442.121 C315.333,439.671 315.683,437.421 316.233,436.271 C317.283,434.021 319.533,432.471 321.683,432.471 C322.983,432.471 324.483,433.171 325.233,434.221 C325.983,435.321 326.333,436.821 326.333,439.221 L326.333,449.671 C326.283,450.421 326.233,450.721 326.033,450.971 C325.683,451.421 324.683,451.621 322.533,451.671 L322.333,451.671 L322.333,453.471 L334.983,453.471 L334.983,451.671 L334.783,451.671 C331.483,451.571 331.033,451.321 331.033,449.521 L331.033,439.471 C331.033,435.871 330.883,434.971 329.983,433.271 C328.733,430.871 326.233,429.421 323.233,429.421 C319.983,429.421 317.533,430.921 315.333,434.221 L315.333,430.171 M348.48,429.421 C342.33,429.421 337.58,434.871 337.58,441.871 C337.58,448.721 342.38,454.221 348.38,454.221 C354.38,454.221 359.18,448.721 359.18,441.821 C359.18,434.971 354.38,429.421 348.48,429.421 M348.48,431.571 C351.98,431.571 353.93,435.221 353.93,441.821 C353.93,448.471 351.98,452.071 348.38,452.071 C344.78,452.071 342.83,448.471 342.83,441.871 C342.83,435.071 344.73,431.571 348.48,431.571"/>
<path class="InstrumentName" d="M242.298,1706.5 L240.398,1706.5 L238.398,1709.45 C234.748,1706.8 232.898,1706.1 229.448,1706.1 C224.698,1706.1 220.648,1708.1 217.298,1712.1 C214.098,1715.9 212.598,1720.1 212.598,1725.25 C212.598,1736.05 219.648,1743.7 229.498,1743.7 C237.498,1743.7 242.598,1739 243.748,1730.6 L241.398,1730.2 C240.048,1737.65 236.248,1741.35 230.098,1741.35 C222.698,1741.35 219.198,1736.25 219.198,1725.45 C219.198,1719.75 219.948,1716 221.648,1713 C223.198,1710.2 226.248,1708.45 229.498,1708.45 C232.998,1708.45 236.098,1710.3 237.998,1713.5 C238.948,1715.15 239.648,1717 240.848,1720.95 L243.048,1720.95 L242.298,1706.5 M258.839,1718.9 C252.689,1718.9 247.939,1724.35 247.939,1731.35 C247.939,1738.2 252.739,1743.7 258.739,1743.7 C264.739,1743.7 269.539,1738.2 269.539,1731.3 C269.539,1724.45 264.739,1718.9 258.839,1718.9 M258.839,1721.05 C262.339,1721.05 264.289,1724.7 264.289,1731.3 C264.289,1737.95 262.339,1741.55 258.739,1741.55 C255.139,1741.55 253.189,1737.95 253.189,1731.35 C253.189,1724.55 255.089,1721.05 258.839,1721.05 M281.239,1719.65 L272.589,1720.2 L272.589,1722.35 L274.389,1722.35 C276.289,1722.4 276.539,1722.7 276.539,1724.85 L276.539,1739.15 C276.489,1739.9 276.439,1740.2 276.239,1740.45 C275.889,1740.9 274.939,1741.1 272.789,1741.15 L272.589,1741.15 L272.589,1742.95 L285.239,1742.95 L285.239,1741.15 L285.039,1741.15 C281.689,1741.05 281.239,1740.8 281.239,1739 L281.239,1731.6 C281.239,1729.15 281.589,1726.9 282.139,1725.75 C283.189,1723.5 285.439,1721.95 287.589,1721.95 C288.889,1721.95 290.389,1722.65 291.139,1723.7 C291.889,1724.8 292.239,1726.3 292.239,1728.7 L292.239,1739.15 C292.189,1739.9 292.139,1740.2 291.939,1740.45 C291.589,1740.9 290.589,1741.1 288.439,1741.15 L288.239,1741.15 L288.239,1742.95 L300.889,1742.95 L300.889,1741.15 L300.689,1741.15 C297.389,1741.05 296.939,1740.8 296.939,1739 L296.939,1728.95 C296.939,1725.35 296.789,1724.45 295.889,1722.75 C294.639,1720.35 292.139,1718.9 289.139,1718.9 C285.889,1718.9 283.439,1720.4 281.239,1723.7 L281.239,1719.65 M311.486,1719.65 L311.486,1709.75 L309.436,1709.75 C308.936,1716.25 306.736,1719.55 302.686,1719.85 L302.686,1721.8 L306.786,1721.8 L306.786,1734.55 C306.786,1738.05 306.886,1739.3 307.386,1740.45 C308.186,1742.55 310.186,1743.7 313.086,1743.7 C317.586,1743.7 320.486,1740.3 320.486,1735 C320.486,1734.7 320.486,1734.35 320.436,1733.85 L318.336,1733.85 C318.186,1738.35 316.886,1740.65 314.436,1740.65 C313.286,1740.65 312.286,1740.05 311.936,1739.2 C311.636,1738.5 311.486,1737.25 311.486,1735.45 L311.486,1721.8 L318.836,1721.8 L318.836,1719.65 L311.486,1719.65 M330.223,1706.1 L321.623,1706.65 L321.623,1708.8 L323.373,1708.8 C325.273,1708.85 325.523,1709.15 325.523,1711.3 L325.523,1730.75 C325.523,1737.7 325.223,1741.5 324.623,1743.65 L326.523,1743.65 L328.973,1739.75 C331.023,1742.45 333.373,1743.7 336.473,1743.7 C342.673,1743.7 347.223,1738.4 347.223,1731.15 C347.223,1723.95 343.023,1718.9 337.023,1718.9 C333.973,1718.9 332.123,1719.95 330.223,1722.8 L330.223,1706.1 M336.123,1721.45 C339.873,1721.45 341.973,1725.1 341.973,1731.65 C341.973,1738 339.923,1741.55 336.273,1741.55 C332.323,1741.55 329.973,1737.9 329.973,1731.75 C329.973,1725.05 332.123,1721.45 336.123,1721.45 M355.12,1737.4 C353.37,1737.4 351.97,1738.8 351.97,1740.5 C351.97,1742.25 353.37,1743.65 355.07,1743.65 C356.82,1743.65 358.22,1742.25 358.22,1740.5 C358.22,1738.8 356.82,1737.4 355.12,1737.4"/>
<path class="InstrumentName" d="M242.298,748.65 L240.398,748.65 L238.398,751.6 C234.748,748.95 232.898,748.25 229.448,748.25 C224.698,748.25 220.648,750.25 217.298,754.25 C214.098,758.05 212.598,762.25 212.598,767.4 C212.598,778.2 219.648,785.85 229.498,785.85 C237.498,785.85 242.598,781.15 243.748,772.75 L241.398,772.35 C240.048,779.8 236.248,783.5 230.098,783.5 C222.698,783.5 219.198,778.4 219.198,767.6 C219.198,761.9 219.948,758.15 221.648,755.15 C223.198,752.35 226.248,750.6 229.498,750.6 C232.998,750.6 236.098,752.45 237.998,755.65 C238.948,757.3 239.648,759.15 240.848,763.1 L243.048,763.1 L242.298,748.65 M258.839,761.05 C252.689,761.05 247.939,766.5 247.939,773.5 C247.939,780.35 252.739,785.85 258.739,785.85 C264.739,785.85 269.539,780.35 269.539,773.45 C269.539,766.6 264.739,761.05 258.839,761.05 M258.839,763.2 C262.339,763.2 264.289,766.85 264.289,773.45 C264.289,780.1 262.339,783.7 258.739,783.7 C255.139,783.7 253.189,780.1 253.189,773.5 C253.189,766.7 255.089,763.2 258.839,763.2 M281.239,761.8 L272.589,762.35 L272.589,764.5 L274.389,764.5 C276.289,764.55 276.539,764.85 276.539,767 L276.539,781.3 C276.489,782.05 276.439,782.35 276.239,782.6 C275.889,783.05 274.939,783.25 272.789,783.3 L272.589,783.3 L272.589,785.1 L285.239,785.1 L285.239,783.3 L285.039,783.3 C281.689,783.2 281.239,782.95 281.239,781.15 L281.239,773.75 C281.239,771.3 281.589,769.05 282.139,767.9 C283.189,765.65 285.439,764.1 287.589,764.1 C288.889,764.1 290.389,764.8 291.139,765.85 C291.889,766.95 292.239,768.45 292.239,770.85 L292.239,781.3 C292.189,782.05 292.139,782.35 291.939,782.6 C291.589,783.05 290.589,783.25 288.439,783.3 L288.239,783.3 L288.239,785.1 L300.889,785.1 L300.889,783.3 L300.689,783.3 C297.389,783.2 296.939,782.95 296.939,781.15 L296.939,771.1 C296.939,767.5 296.789,766.6 295.889,764.9 C294.639,762.5 292.139,761.05 289.139,761.05 C285.889,761.05 283.439,762.55 281.239,765.85 L281.239,761.8 M311.486,761.8 L311.486,751.9 L309.436,751.9 C308.936,758.4 306.736,761.7 302.686,762 L302.686,763.95 L306.786,763.95 L306.786,776.7 C306.786,780.2 306.886,781.45 307.386,782.6 C308.186,784.7 310.186,785.85 313.086,785.85 C317.586,785.85 320.486,782.45 320.486,777.15 C320.486,776.85 320.486,776.5 320.436,776 L318.336,776 C318.186,780.5 316.886,782.8 314.436,782.8 C313.286,782.8 312.286,782.2 311.936,781.35 C311.636,780.65 311.486,779.4 311.486,777.6 L311.486,763.95 L318.836,763.95 L318.836,761.8 L311.486,761.8 M330.223,748.25 L321.623,748.8 L321.623,750.95 L323.373,750.95 C325.273,751 325.523,751.3 325.523,753.45 L325.523,772.9 C325.523,779.85 325.223,783.65 324.623,785.8 L326.523,785.8 L328.973,781.9 C331.023,784.6 333.373,785.85 336.473,785.85 C342.673,785.85 347.223,780.55 347.223,773.3 C347.223,766.1 343.023,761.05 337.023,761.05 C333.973,761.05 332.123,762.1 330.223,764.95 L330.223,748.25 M336.123,763.6 C339.873,763.6 341.973,767.25 341.973,773.8 C341.973,780.15 339.923,783.7 336.273,783.7 C332.323,783.7 329.973,780.05 329.973,773.9 C329.973,767.2 332.123,763.6 336.123,763.6 M355.12,779.55 C353.37,779.55 351.97,780.95 351.97,782.65 C351.97,784.4 353.37,785.8 355.07,785.8 C356.82,785.8 358.22,784.4 358.22,782.65 C358.22,780.95 356.82,779.55 355.12,779.55"/>
<polyline class="BarLine" fill="none" stroke="#000000" stroke-width="4.46" stroke-linejoin="bevel" points="1405.02,384.835 1405.02,717.453"/>
<polyline class="BarLine" fill="none" stroke="#000000" stroke-width="4.46" stroke-linejoin="bevel" points="403.785,1342.69 403.785,1675.3"/>
<polyline class="BarLine" fill="none" stroke="#000000" stroke-width="4.46" stroke-linejoin="bevel" points="1875.35,384.835 1875.35,717.453"/>
<polyline class="BarLine" fill="none" stroke="#000000" stroke-width="4.46" stroke-linejoin="bevel" points="2250.13,1342.69 2250.13,1675.3"/>
<polyline class="BarLine" fill="none" stroke="#000000" stroke-width="4.46" stroke-linejoin="bevel" points="2308.7,384.835 2308.7,717.453"/>
<polyline class="BarLine" fill="none" stroke="#000000" stroke-width="4.46" stroke-linejoin="bevel" points="971.672,384.835 971.672,717.453"/>
<polyline class="BarLine" fill="none" stroke="#000000" stroke-width="4.46" stroke-linejoin="bevel" points="1686.15,1342.69 1686.15,1675.3"/>
<polyline class="BarLine" fill="none" stroke="#000000" stroke-width="4.46" stroke-linejoin="bevel" points="403.785,384.835 403.785,717.453"/>
<polyline class="BarLine" fill="none" stroke="#000000" stroke-width="4.46" stroke-linejoin="bevel" points="2762.37,384.835 2762.37,717.453"/>
<polyline class="BarLine" fill="none" stroke="#000000" stroke-width="4.46" stroke-linejoin="bevel" points="1083.53,1342.69 1083.53,1675.3"/>
<polyline class="BarLine" fill="none" stroke="#000000" stroke-width="4.46" stroke-linejoin="bevel" points="2739.55,1342.69 2739.55,1675.3"/>
<polyline class="BarLine" fill="none" stroke="#000000" stroke-width="13.64" stroke-linejoin="bevel" points="2757.78,1342.69 2757.78,1675.3"/>
<polyline class="BarLine" fill="none" stroke="#000000" stroke-width="4.46" stroke-linejoin="bevel" points="1405.02,716.089 1405.02,818.017"/>
<polyline class="BarLine" fill="none" stroke="#000000" stroke-width="4.46" stroke-linejoin="bevel" points="403.785,1673.94 403.785,1775.87"/>
<polyline class="BarLine" fill="none" stroke="#000000" stroke-width="4.46" stroke-linejoin="bevel" points="2739.55,1673.94 2739.55,1775.87"/>
<polyline class="BarLine" fill="none" stroke="#000000" stroke-width="13.64" stroke-linejoin="bevel" points="2757.78,1673.94 2757.78,1775.87"/>
<polyline class="BarLine" fill="none" stroke="#000000" stroke-width="4.46" stroke-linejoin="bevel" points="403.785,716.089 403.785,818.017"/>
<polyline class="BarLine" fill="none" stroke="#000000" stroke-width="4.46" stroke-linejoin="bevel" points="2762.37,716.089 2762.37,818.017"/>
<polyline class="BarLine" fill="none" stroke="#000000" stroke-width="4.46" stroke-linejoin="bevel" points="1083.53,1673.94 1083.53,1775.87"/>
<polyline class="BarLine" fill="none" stroke="#000000" stroke-width="4.46" stroke-linejoin="bevel" points="1686.15,1673.94 1686.15,1775.87"/>
<polyline class="BarLine" fill="none" stroke="#000000" stroke-width="4.46" stroke-linejoin="bevel" points="971.672,716.089 971.672,818.017"/>
<polyline class="BarLine" fill="none" stroke="#000000" stroke-width="4.46" stroke-linejoin="bevel" points="2308.7,716.089 2308.7,818.017"/>
<polyline class="BarLine" fill="none" stroke="#000000" stroke-width="4.46" stroke-linejoin="bevel" points="1875.35,716.089 1875.35,818.017"/>
<polyline class="BarLine" fill="none" stroke="#000000" stroke-width="4.46" stroke-linejoin="bevel" points="2250.13,1673.94 2250.13,1775.87"/>
<path class="Accidental" transform="matrix(0.992001,0,0,0.992001,1181.31,497.799)" d="M16.6,-18.3 C16.4,-18.5 16.1,-18.6 15.7,-18.6 L15.5,-18.5 C15.5,-18.5 15.4,-18.5 15.4,-18.5 L2.8,-15 L2.8,-32.5 L0,-32.5 L0,17 C0,18.1 0.9,18.3 1.8,18.3 L14.4,14.8 L14.4,32.3 L17.1,32.3 C17.1,15.7 17.1,-0.1 17.1,-17.2 C17.1,-17.6 16.9,-18.1 16.6,-18.3 M2.8,9.7 L2.8,-6.7 L14.4,-10 L14.4,6.5 L2.8,9.7 "/>
<path class="Accidental" transform="matrix(0.992001,0,0,0.992001,626.908,460.599)" d="M12,-15.5 C7,-15.5 4.1,-12.4 3.6,-11.8 L4,-43.9 C4,-44.7 3.4,-45.3 2.6,-45.3 L1.4,-45.3 C0.6,-45.3 0,-44.7 0,-43.9 L0.5,16.2 C0.5,17 1.1,17.6 1.9,17.6 C2.1,17.6 2.5,17.5 2.7,17.4 C11.3,13.1 20.3,4.9 20.3,-5.4 C20.3,-10.6 17.9,-15.5 12,-15.5 M3.3,12.7 L3.6,-6.8 C3.8,-7.7 5.3,-10.6 9.3,-10.6 C12.9,-10.6 13.2,-7.2 13.2,-5.1 C13.2,3.8 9.9,7.5 3.3,12.7"/>
<path class="Accidental" transform="matrix(0.992001,0,0,0.992001,659.498,1455.65)" d="M12,-15.5 C7,-15.5 4.1,-12.4 3.6,-11.8 L4,-43.9 C4,-44.7 3.4,-45.3 2.6,-45.3 L1.4,-45.3 C0.6,-45.3 0,-44.7 0,-43.9 L0.5,16.2 C0.5,17 1.1,17.6 1.9,17.6 C2.1,17.6 2.5,17.5 2.7,17.4 C11.3,13.1 20.3,4.9 20.3,-5.4 C20.3,-10.6 17.9,-15.5 12,-15.5 M3.3,12.7 L3.6,-6.8 C3.8,-7.7 5.3,-10.6 9.3,-10.6 C12.9,-10.6 13.2,-7.2 13.2,-5.1 C13.2,3.8 9.9,7.5 3.3,12.7"/>
<path class="Accidental" transform="matrix(0.992001,0,0,0.992001,916.691,1480.45)" d="M12,-15.5 C7,-15.5 4.1,-12.4 3.6,-11.8 L4,-43.9 C4,-44.7 3.4,-45.3 2.6,-45.3 L1.4,-45.3 C0.6,-45.3 0,-44.7 0,-43.9 L0.5,16.2 C0.5,17 1.1,17.6 1.9,17.6 C2.1,17.6 2.5,17.5 2.7,17.4 C11.3,13.1 20.3,4.9 20.3,-5.4 C20.3,-10.6 17.9,-15.5 12,-15.5 M3.3,12.7 L3.6,-6.8 C3.8,-7.7 5.3,-10.6 9.3,-10.6 C12.9,-10.6 13.2,-7.2 13.2,-5.1 C13.2,3.8 9.9,7.5 3.3,12.7"/>
<path class="Accidental" transform="matrix(0.992001,0,0,0.992001,1074.91,497.799)" d="M23.3,-10.5 C23.9,-10.6 24.4,-11.3 24.4,-11.9 L24.4,-17.8 C24.4,-18.8 23.7,-19.2 22.8,-19.2 L19.5,-18.5 L19.5,-33.4 L16.7,-33.4 L16.7,-17.9 L7.8,-16.1 L7.8,-30.2 L5,-30.2 L5,-15.5 L1.1,-14.7 C0.5,-14.6 0,-13.9 0,-13.3 L0,-7.5 C0,-6.4 0.8,-6.1 1.7,-6.1 L5,-6.8 L5,9.7 L1.1,10.5 C0.5,10.6 0,11.3 0,11.9 L0,17.7 C0,18.8 0.8,19.1 1.7,19.1 L5,18.4 L5,33.3 L7.8,33.3 L7.8,17.8 L16.7,16 L16.7,30.1 L19.5,30.1 L19.5,15.4 L23.3,14.7 C23.9,14.6 24.4,13.9 24.4,13.3 L24.4,7.4 C24.4,6.4 23.7,6 22.8,6 L19.5,6.7 L19.5,-9.8 L23.3,-10.5 M7.8,-7.4 L16.7,-9.2 L16.7,7.3 L7.8,9.2 L7.8,-7.4 "/>
<path class="Accidental" transform="matrix(0.992001,0,0,0.992001,2516.77,485.399)" d="M12,-15.5 C7,-15.5 4.1,-12.4 3.6,-11.8 L4,-43.9 C4,-44.7 3.4,-45.3 2.6,-45.3 L1.4,-45.3 C0.6,-45.3 0,-44.7 0,-43.9 L0.5,16.2 C0.5,17 1.1,17.6 1.9,17.6 C2.1,17.6 2.5,17.5 2.7,17.4 C11.3,13.1 20.3,4.9 20.3,-5.4 C20.3,-10.6 17.9,-15.5 12,-15.5 M3.3,12.7 L3.6,-6.8 C3.8,-7.7 5.3,-10.6 9.3,-10.6 C12.9,-10.6 13.2,-7.2 13.2,-5.1 C13.2,3.8 9.9,7.5 3.3,12.7"/>
<path class="Accidental" transform="matrix(0.992001,0,0,0.992001,1101.88,1492.85)" d="M12,-15.5 C7,-15.5 4.1,-12.4 3.6,-11.8 L4,-43.9 C4,-44.7 3.4,-45.3 2.6,-45.3 L1.4,-45.3 C0.6,-45.3 0,-44.7 0,-43.9 L0.5,16.2 C0.5,17 1.1,17.6 1.9,17.6 C2.1,17.6 2.5,17.5 2.7,17.4 C11.3,13.1 20.3,4.9 20.3,-5.4 C20.3,-10.6 17.9,-15.5 12,-15.5 M3.3,12.7 L3.6,-6.8 C3.8,-7.7 5.3,-10.6 9.3,-10.6 C12.9,-10.6 13.2,-7.2 13.2,-5.1 C13.2,3.8 9.9,7.5 3.3,12.7"/>
<path class="Accidental" transform="matrix(0.992001,0,0,0.992001,1423.37,522.599)" d="M12,-15.5 C7,-15.5 4.1,-12.4 3.6,-11.8 L4,-43.9 C4,-44.7 3.4,-45.3 2.6,-45.3 L1.4,-45.3 C0.6,-45.3 0,-44.7 0,-43.9 L0.5,16.2 C0.5,17 1.1,17.6 1.9,17.6 C2.1,17.6 2.5,17.5 2.7,17.4 C11.3,13.1 20.3,4.9 20.3,-5.4 C20.3,-10.6 17.9,-15.5 12,-15.5 M3.3,12.7 L3.6,-6.8 C3.8,-7.7 5.3,-10.6 9.3,-10.6 C12.9,-10.6 13.2,-7.2 13.2,-5.1 C13.2,3.8 9.9,7.5 3.3,12.7"/>
<path class="Accidental" transform="matrix(0.992001,0,0,0.992001,1240.15,1443.25)" d="M12,-15.5 C7,-15.5 4.1,-12.4 3.6,-11.8 L4,-43.9 C4,-44.7 3.4,-45.3 2.6,-45.3 L1.4,-45.3 C0.6,-45.3 0,-44.7 0,-43.9 L0.5,16.2 C0.5,17 1.1,17.6 1.9,17.6 C2.1,17.6 2.5,17.5 2.7,17.4 C11.3,13.1 20.3,4.9 20.3,-5.4 C20.3,-10.6 17.9,-15.5 12,-15.5 M3.3,12.7 L3.6,-6.8 C3.8,-7.7 5.3,-10.6 9.3,-10.6 C12.9,-10.6 13.2,-7.2 13.2,-5.1 C13.2,3.8 9.9,7.5 3.3,12.7"/>
<path class="Accidental" transform="matrix(0.992001,0,0,0.992001,2071.3,510.199)" d="M23.3,-10.5 C23.9,-10.6 24.4,-11.3 24.4,-11.9 L24.4,-17.8 C24.4,-18.8 23.7,-19.2 22.8,-19.2 L19.5,-18.5 L19.5,-33.4 L16.7,-33.4 L16.7,-17.9 L7.8,-16.1 L7.8,-30.2 L5,-30.2 L5,-15.5 L1.1,-14.7 C0.5,-14.6 0,-13.9 0,-13.3 L0,-7.5 C0,-6.4 0.8,-6.1 1.7,-6.1 L5,-6.8 L5,9.7 L1.1,10.5 C0.5,10.6 0,11.3 0,11.9 L0,17.7 C0,18.8 0.8,19.1 1.7,19.1 L5,18.4 L5,33.3 L7.8,33.3 L7.8,17.8 L16.7,16 L16.7,30.1 L19.5,30.1 L19.5,15.4 L23.3,14.7 C23.9,14.6 24.4,13.9 24.4,13.3 L24.4,7.4 C24.4,6.4 23.7,6 22.8,6 L19.5,6.7 L19.5,-9.8 L23.3,-10.5 M7.8,-7.4 L16.7,-9.2 L16.7,7.3 L7.8,9.2 L7.8,-7.4 "/>
<path class="Accidental" transform="matrix(0.992001,0,0,0.992001,527.677,1443.25)" d="M12,-15.5 C7,-15.5 4.1,-12.4 3.6,-11.8 L4,-43.9 C4,-44.7 3.4,-45.3 2.6,-45.3 L1.4,-45.3 C0.6,-45.3 0,-44.7 0,-43.9 L0.5,16.2 C0.5,17 1.1,17.6 1.9,17.6 C2.1,17.6 2.5,17.5 2.7,17.4 C11.3,13.1 20.3,4.9 20.3,-5.4 C20.3,-10.6 17.9,-15.5 12,-15.5 M3.3,12.7 L3.6,-6.8 C3.8,-7.7 5.3,-10.6 9.3,-10.6 C12.9,-10.6 13.2,-7.2 13.2,-5.1 C13.2,3.8 9.9,7.5 3.3,12.7"/>
<path class="Accidental" transform="matrix(0.992001,0,0,0.992001,1240.15,1675.3)" d="M12,-15.5 C7,-15.5 4.1,-12.4 3.6,-11.8 L4,-43.9 C4,-44.7 3.4,-45.3 2.6,-45.3 L1.4,-45.3 C0.6,-45.3 0,-44.7 0,-43.9 L0.5,16.2 C0.5,17 1.1,17.6 1.9,17.6 C2.1,17.6 2.5,17.5 2.7,17.4 C11.3,13.1 20.3,4.9 20.3,-5.4 C20.3,-10.6 17.9,-15.5 12,-15.5 M3.3,12.7 L3.6,-6.8 C3.8,-7.7 5.3,-10.6 9.3,-10.6 C12.9,-10.6 13.2,-7.2 13.2,-5.1 C13.2,3.8 9.9,7.5 3.3,12.7"/>
<path class="Accidental" transform="matrix(0.992001,0,0,0.992001,726.07,705.053)" d="M12,-15.5 C7,-15.5 4.1,-12.4 3.6,-11.8 L4,-43.9 C4,-44.7 3.4,-45.3 2.6,-45.3 L1.4,-45.3 C0.6,-45.3 0,-44.7 0,-43.9 L0.5,16.2 C0.5,17 1.1,17.6 1.9,17.6 C2.1,17.6 2.5,17.5 2.7,17.4 C11.3,13.1 20.3,4.9 20.3,-5.4 C20.3,-10.6 17.9,-15.5 12,-15.5 M3.3,12.7 L3.6,-6.8 C3.8,-7.7 5.3,-10.6 9.3,-10.6 C12.9,-10.6 13.2,-7.2 13.2,-5.1 C13.2,3.8 9.9,7.5 3.3,12.7"/>
<path class="Accidental" transform="matrix(0.992001,0,0,0.992001,2516.77,717.453)" d="M12,-15.5 C7,-15.5 4.1,-12.4 3.6,-11.8 L4,-43.9 C4,-44.7 3.4,-45.3 2.6,-45.3 L1.4,-45.3 C0.6,-45.3 0,-44.7 0,-43.9 L0.5,16.2 C0.5,17 1.1,17.6 1.9,17.6 C2.1,17.6 2.5,17.5 2.7,17.4 C11.3,13.1 20.3,4.9 20.3,-5.4 C20.3,-10.6 17.9,-15.5 12,-15.5 M3.3,12.7 L3.6,-6.8 C3.8,-7.7 5.3,-10.6 9.3,-10.6 C12.9,-10.6 13.2,-7.2 13.2,-5.1 C13.2,3.8 9.9,7.5 3.3,12.7"/>
<path class="Accidental" transform="matrix(0.992001,0,0,0.992001,1530.59,705.053)" d="M12,-15.5 C7,-15.5 4.1,-12.4 3.6,-11.8 L4,-43.9 C4,-44.7 3.4,-45.3 2.6,-45.3 L1.4,-45.3 C0.6,-45.3 0,-44.7 0,-43.9 L0.5,16.2 C0.5,17 1.1,17.6 1.9,17.6 C2.1,17.6 2.5,17.5 2.7,17.4 C11.3,13.1 20.3,4.9 20.3,-5.4 C20.3,-10.6 17.9,-15.5 12,-15.5 M3.3,12.7 L3.6,-6.8 C3.8,-7.7 5.3,-10.6 9.3,-10.6 C12.9,-10.6 13.2,-7.2 13.2,-5.1 C13.2,3.8 9.9,7.5 3.3,12.7"/>
<polyline class="LedgerLine" fill="none" stroke="#000000" stroke-width="3.97" stroke-linejoin="bevel" points="2199.13,510.199 2247.72,510.199"/>
<polyline class="LedgerLine" fill="none" stroke="#000000" stroke-width="3.97" stroke-linejoin="bevel" points="1295.45,510.199 1344.04,510.199"/>
<polyline class="LedgerLine" fill="none" stroke="#000000" stroke-width="3.97" stroke-linejoin="bevel" points="2276.42,1492.85 2325.01,1492.85"/>
<polyline class="LedgerLine" fill="none" stroke="#000000" stroke-width="3.97" stroke-linejoin="bevel" points="1976.08,1468.05 2024.67,1468.05"/>
<polyline class="LedgerLine" fill="none" stroke="#000000" stroke-width="3.97" stroke-linejoin="bevel" points="809.469,1468.05 858.062,1468.05"/>
<polyline class="LedgerLine" fill="none" stroke="#000000" stroke-width="3.97" stroke-linejoin="bevel" points="1844.26,1468.05 1892.85,1468.05"/>
<polyline class="LedgerLine" fill="none" stroke="#000000" stroke-width="3.97" stroke-linejoin="bevel" points="941.29,1468.05 989.882,1468.05"/>
<polyline class="LedgerLine" fill="none" stroke="#000000" stroke-width="3.97" stroke-linejoin="bevel" points="2107.9,1468.05 2156.49,1468.05"/>
<polyline class="LedgerLine" fill="none" stroke="#000000" stroke-width="3.97" stroke-linejoin="bevel" points="2276.42,1468.05 2325.01,1468.05"/>
<polyline class="LedgerLine" fill="none" stroke="#000000" stroke-width="3.97" stroke-linejoin="bevel" points="544.293,510.199 592.886,510.199"/>
<polyline class="LedgerLine" fill="none" stroke="#000000" stroke-width="3.97" stroke-linejoin="bevel" points="1126.48,1468.05 1175.07,1468.05"/>
<polyline class="LedgerLine" fill="none" stroke="#000000" stroke-width="3.97" stroke-linejoin="bevel" points="1126.48,1492.85 1175.07,1492.85"/>
<polyline class="LedgerLine" fill="none" stroke="#000000" stroke-width="3.97" stroke-linejoin="bevel" points="1447.97,510.199 1496.57,510.199"/>
<polyline class="LedgerLine" fill="none" stroke="#000000" stroke-width="3.97" stroke-linejoin="bevel" points="2334.99,534.999 2383.58,534.999"/>
<polyline class="LedgerLine" fill="none" stroke="#000000" stroke-width="3.97" stroke-linejoin="bevel" points="2099.96,510.199 2148.56,510.199"/>
<polyline class="LedgerLine" fill="none" stroke="#000000" stroke-width="3.97" stroke-linejoin="bevel" points="2334.99,510.199 2383.58,510.199"/>
<polyline class="LedgerLine" fill="none" stroke="#000000" stroke-width="3.97" stroke-linejoin="bevel" points="2107.9,1492.85 2156.49,1492.85"/>
<polyline class="Stem" fill="none" stroke="#000000" stroke-width="2.48" stroke-linejoin="bevel" points="1687.07,481.431 1687.07,398.599"/>
<polyline class="Stem" fill="none" stroke="#000000" stroke-width="2.48" stroke-linejoin="bevel" points="848.638,1464.08 848.638,1381.25"/>
<polyline class="Stem" fill="none" stroke="#000000" stroke-width="2.48" stroke-linejoin="bevel" points="584.996,1439.28 584.996,1356.45"/>
<polyline class="Stem" fill="none" stroke="#000000" stroke-width="2.48" stroke-linejoin="bevel" points="1037.13,469.031 1037.13,386.199"/>
<polyline class="Stem" fill="none" stroke="#000000" stroke-width="2.48" stroke-linejoin="bevel" points="1587.91,469.031 1587.91,386.199"/>
<polyline class="Stem" fill="none" stroke="#000000" stroke-width="2.48" stroke-linejoin="bevel" points="583.462,518.631 583.462,435.799"/>
<polyline class="Stem" fill="none" stroke="#000000" stroke-width="2.48" stroke-linejoin="bevel" points="2315.59,1501.28 2315.59,1393.65"/>
<polyline class="Stem" fill="none" stroke="#000000" stroke-width="2.48" stroke-linejoin="bevel" points="2374.16,531.031 2374.16,435.799"/>
<polyline class="Stem" fill="none" stroke="#000000" stroke-width="2.48" stroke-linejoin="bevel" points="1334.61,506.231 1334.61,423.399"/>
<polyline class="Stem" fill="none" stroke="#000000" stroke-width="2.48" stroke-linejoin="bevel" points="2139.13,506.231 2139.13,423.399"/>
<polyline class="Stem" fill="none" stroke="#000000" stroke-width="2.48" stroke-linejoin="bevel" points="1297.47,1439.28 1297.47,1356.45"/>
<polyline class="Stem" fill="none" stroke="#000000" stroke-width="2.48" stroke-linejoin="bevel" points="1429.29,1451.68 1429.29,1368.85"/>
<polyline class="Stem" fill="none" stroke="#000000" stroke-width="2.48" stroke-linejoin="bevel" points="2039.97,493.831 2039.97,410.999"/>
<polyline class="Stem" fill="none" stroke="#000000" stroke-width="2.48" stroke-linejoin="bevel" points="2474.93,481.431 2474.93,398.599"/>
<polyline class="Stem" fill="none" stroke="#000000" stroke-width="2.48" stroke-linejoin="bevel" points="2147.07,1488.88 2147.07,1393.65"/>
<polyline class="Stem" fill="none" stroke="#000000" stroke-width="2.48" stroke-linejoin="bevel" points="716.817,1451.68 716.817,1368.85"/>
<polyline class="Stem" fill="none" stroke="#000000" stroke-width="2.48" stroke-linejoin="bevel" points="1165.65,1488.88 1165.65,1393.65"/>
<polyline class="Stem" fill="none" stroke="#000000" stroke-width="2.48" stroke-linejoin="bevel" points="1487.14,518.631 1487.14,435.799"/>
<polyline class="Stem" fill="none" stroke="#000000" stroke-width="2.48" stroke-linejoin="bevel" points="2574.09,481.431 2574.09,398.599"/>
<polyline class="Stem" fill="none" stroke="#000000" stroke-width="2.48" stroke-linejoin="bevel" points="1940.81,481.431 1940.81,398.599"/>
<polyline class="Stem" fill="none" stroke="#000000" stroke-width="2.48" stroke-linejoin="bevel" points="783.389,469.031 783.389,386.199"/>
<polyline class="Stem" fill="none" stroke="#000000" stroke-width="2.48" stroke-linejoin="bevel" points="684.227,456.631 684.227,373.799"/>
<polyline class="Stem" fill="none" stroke="#000000" stroke-width="2.48" stroke-linejoin="bevel" points="1751.6,1451.68 1751.6,1368.85"/>
<polyline class="Stem" fill="none" stroke="#000000" stroke-width="2.48" stroke-linejoin="bevel" points="1235.45,493.831 1235.45,410.999"/>
<polyline class="Stem" fill="none" stroke="#000000" stroke-width="2.48" stroke-linejoin="bevel" points="1136.29,493.831 1136.29,410.999"/>
<polyline class="Stem" fill="none" stroke="#000000" stroke-width="2.48" stroke-linejoin="bevel" points="980.458,1476.48 980.458,1393.65"/>
<polyline class="Stem" fill="none" stroke="#000000" stroke-width="2.48" stroke-linejoin="bevel" points="1883.42,1464.08 1883.42,1381.25"/>
<polyline class="Stem" fill="none" stroke="#000000" stroke-width="2.48" stroke-linejoin="bevel" points="2015.24,1476.48 2015.24,1393.65"/>
<polyline class="Stem" fill="none" stroke="#000000" stroke-width="2.48" stroke-linejoin="bevel" points="2238.29,518.631 2238.29,435.799"/>
<polyline class="Stem" fill="none" stroke="#000000" stroke-width="2.48" stroke-linejoin="bevel" points="753.644,709.22 753.644,791.853"/>
<polyline class="Stem" fill="none" stroke="#000000" stroke-width="2.48" stroke-linejoin="bevel" points="1657.32,721.62 1657.32,804.253"/>
<polyline class="Stem" fill="none" stroke="#000000" stroke-width="2.48" stroke-linejoin="bevel" points="2544.34,721.62 2544.34,804.253"/>
<polyline class="Stem" fill="none" stroke="#000000" stroke-width="2.48" stroke-linejoin="bevel" points="2445.18,721.62 2445.18,804.253"/>
<polyline class="Stem" fill="none" stroke="#000000" stroke-width="2.48" stroke-linejoin="bevel" points="1399.54,1691.87 1399.54,1774.5"/>
<polyline class="Stem" fill="none" stroke="#000000" stroke-width="2.48" stroke-linejoin="bevel" points="654.483,709.22 654.483,791.853"/>
<polyline class="Stem" fill="none" stroke="#000000" stroke-width="2.48" stroke-linejoin="bevel" points="1558.16,709.22 1558.16,791.853"/>
<polyline class="Stem" fill="none" stroke="#000000" stroke-width="2.48" stroke-linejoin="bevel" points="1267.72,1679.47 1267.72,1762.1"/>
<path class="Note" transform="matrix(0.992001,0,0,0.992001,2543.1,485.399)" d="M0,4.2 C0,8.5 3.1,13.3 11.2,13.3 C21.6,13.3 32.5,4.8 32.5,-4 C32.5,-9.9 27.5,-13.2 21.3,-13.2 C11.6,-13.2 0,-5 0,4.2"/>
<path class="Note" transform="matrix(0.992001,0,0,0.992001,2343.18,534.999)" d="M0,4.2 C0,8.5 3.1,13.3 11.2,13.3 C21.6,13.3 32.5,4.8 32.5,-4 C32.5,-9.9 27.5,-13.2 21.3,-13.2 C11.6,-13.2 0,-5 0,4.2"/>
<path class="Note" transform="matrix(0.992001,0,0,0.992001,1909.82,485.399)" d="M0,4.2 C0,8.5 3.1,13.3 11.2,13.3 C21.6,13.3 32.5,4.8 32.5,-4 C32.5,-9.9 27.5,-13.2 21.3,-13.2 C11.6,-13.2 0,-5 0,4.2"/>
<path class="Note" transform="matrix(0.992001,0,0,0.992001,552.477,522.599)" d="M0,4.2 C0,8.5 3.1,13.3 11.2,13.3 C21.6,13.3 32.5,4.8 32.5,-4 C32.5,-9.9 27.5,-13.2 21.3,-13.2 C11.6,-13.2 0,-5 0,4.2"/>
<path class="Note" transform="matrix(0.992001,0,0,0.992001,554.012,1443.25)" d="M0,4.2 C0,8.5 3.1,13.3 11.2,13.3 C21.6,13.3 32.5,4.8 32.5,-4 C32.5,-9.9 27.5,-13.2 21.3,-13.2 C11.6,-13.2 0,-5 0,4.2"/>
<path class="Note" transform="matrix(0.992001,0,0,0.992001,1204.47,497.799)" d="M0,4.2 C0,8.5 3.1,13.3 11.2,13.3 C21.6,13.3 32.5,4.8 32.5,-4 C32.5,-9.9 27.5,-13.2 21.3,-13.2 C11.6,-13.2 0,-5 0,4.2"/>
<path class="Note" transform="matrix(0.992001,0,0,0.992001,2284.61,1505.25)" d="M0,4.2 C0,8.5 3.1,13.3 11.2,13.3 C21.6,13.3 32.5,4.8 32.5,-4 C32.5,-9.9 27.5,-13.2 21.3,-13.2 C11.6,-13.2 0,-5 0,4.2"/>
<path class="Note" transform="matrix(0.992001,0,0,0.992001,1852.44,1468.05)" d="M0,4.2 C0,8.5 3.1,13.3 11.2,13.3 C21.6,13.3 32.5,4.8 32.5,-4 C32.5,-9.9 27.5,-13.2 21.3,-13.2 C11.6,-13.2 0,-5 0,4.2"/>
<path class="Note" transform="matrix(0.992001,0,0,0.992001,685.832,1455.65)" d="M0,4.2 C0,8.5 3.1,13.3 11.2,13.3 C21.6,13.3 32.5,4.8 32.5,-4 C32.5,-9.9 27.5,-13.2 21.3,-13.2 C11.6,-13.2 0,-5 0,4.2"/>
<path class="Note" transform="matrix(0.992001,0,0,0.992001,752.404,472.999)" d="M0,4.2 C0,8.5 3.1,13.3 11.2,13.3 C21.6,13.3 32.5,4.8 32.5,-4 C32.5,-9.9 27.5,-13.2 21.3,-13.2 C11.6,-13.2 0,-5 0,4.2"/>
<path class="Note" transform="matrix(0.992001,0,0,0.992001,1984.26,1480.45)" d="M0,4.2 C0,8.5 3.1,13.3 11.2,13.3 C21.6,13.3 32.5,4.8 32.5,-4 C32.5,-9.9 27.5,-13.2 21.3,-13.2 C11.6,-13.2 0,-5 0,4.2"/>
<path class="Note" transform="matrix(0.992001,0,0,0.992001,1398.3,1455.65)" d="M0,4.2 C0,8.5 3.1,13.3 11.2,13.3 C21.6,13.3 32.5,4.8 32.5,-4 C32.5,-9.9 27.5,-13.2 21.3,-13.2 C11.6,-13.2 0,-5 0,4.2"/>
<path class="Note" transform="matrix(0.992001,0,0,0.992001,817.653,1468.05)" d="M0,4.2 C0,8.5 3.1,13.3 11.2,13.3 C21.6,13.3 32.5,4.8 32.5,-4 C32.5,-9.9 27.5,-13.2 21.3,-13.2 C11.6,-13.2 0,-5 0,4.2"/>
<path class="Note" transform="matrix(0.992001,0,0,0.992001,1303.63,510.199)" d="M0,4.2 C0,8.5 3.1,13.3 11.2,13.3 C21.6,13.3 32.5,4.8 32.5,-4 C32.5,-9.9 27.5,-13.2 21.3,-13.2 C11.6,-13.2 0,-5 0,4.2"/>
<path class="Note" transform="matrix(0.992001,0,0,0.992001,1105.31,497.799)" d="M0,4.2 C0,8.5 3.1,13.3 11.2,13.3 C21.6,13.3 32.5,4.8 32.5,-4 C32.5,-9.9 27.5,-13.2 21.3,-13.2 C11.6,-13.2 0,-5 0,4.2"/>
<path class="Note" transform="matrix(0.992001,0,0,0.992001,949.474,1480.45)" d="M0,4.2 C0,8.5 3.1,13.3 11.2,13.3 C21.6,13.3 32.5,4.8 32.5,-4 C32.5,-9.9 27.5,-13.2 21.3,-13.2 C11.6,-13.2 0,-5 0,4.2"/>
<path class="Note" transform="matrix(0.992001,0,0,0.992001,2008.99,497.799)" d="M0,4.2 C0,8.5 3.1,13.3 11.2,13.3 C21.6,13.3 32.5,4.8 32.5,-4 C32.5,-9.9 27.5,-13.2 21.3,-13.2 C11.6,-13.2 0,-5 0,4.2"/>
<path class="Note" transform="matrix(0.992001,0,0,0.992001,653.243,460.599)" d="M0,4.2 C0,8.5 3.1,13.3 11.2,13.3 C21.6,13.3 32.5,4.8 32.5,-4 C32.5,-9.9 27.5,-13.2 21.3,-13.2 C11.6,-13.2 0,-5 0,4.2"/>
<path class="Note" transform="matrix(0.992001,0,0,0.992001,2108.15,510.199)" d="M0,4.2 C0,8.5 3.1,13.3 11.2,13.3 C21.6,13.3 32.5,4.8 32.5,-4 C32.5,-9.9 27.5,-13.2 21.3,-13.2 C11.6,-13.2 0,-5 0,4.2"/>
<path class="Note" transform="matrix(0.992001,0,0,0.992001,1456.16,522.599)" d="M0,4.2 C0,8.5 3.1,13.3 11.2,13.3 C21.6,13.3 32.5,4.8 32.5,-4 C32.5,-9.9 27.5,-13.2 21.3,-13.2 C11.6,-13.2 0,-5 0,4.2"/>
<path class="Note" transform="matrix(0.992001,0,0,0.992001,2207.31,522.599)" d="M0,4.2 C0,8.5 3.1,13.3 11.2,13.3 C21.6,13.3 32.5,4.8 32.5,-4 C32.5,-9.9 27.5,-13.2 21.3,-13.2 C11.6,-13.2 0,-5 0,4.2"/>
<path class="Note" transform="matrix(0.992001,0,0,0.992001,1656.08,485.399)" d="M0,4.2 C0,8.5 3.1,13.3 11.2,13.3 C21.6,13.3 32.5,4.8 32.5,-4 C32.5,-9.9 27.5,-13.2 21.3,-13.2 C11.6,-13.2 0,-5 0,4.2"/>
<path class="Note" transform="matrix(0.992001,0,0,0.992001,2443.94,485.399)" d="M0,4.2 C0,8.5 3.1,13.3 11.2,13.3 C21.6,13.3 32.5,4.8 32.5,-4 C32.5,-9.9 27.5,-13.2 21.3,-13.2 C11.6,-13.2 0,-5 0,4.2"/>
<path class="Note" transform="matrix(0.992001,0,0,0.992001,1720.62,1455.65)" d="M0,4.2 C0,8.5 3.1,13.3 11.2,13.3 C21.6,13.3 32.5,4.8 32.5,-4 C32.5,-9.9 27.5,-13.2 21.3,-13.2 C11.6,-13.2 0,-5 0,4.2"/>
<path class="Note" transform="matrix(0.992001,0,0,0.992001,1134.66,1492.85)" d="M0,4.2 C0,8.5 3.1,13.3 11.2,13.3 C21.6,13.3 32.5,4.8 32.5,-4 C32.5,-9.9 27.5,-13.2 21.3,-13.2 C11.6,-13.2 0,-5 0,4.2"/>
<path class="Note" transform="matrix(0.992001,0,0,0.992001,2116.08,1492.85)" d="M0,4.2 C0,8.5 3.1,13.3 11.2,13.3 C21.6,13.3 32.5,4.8 32.5,-4 C32.5,-9.9 27.5,-13.2 21.3,-13.2 C11.6,-13.2 0,-5 0,4.2"/>
<path class="Note" transform="matrix(0.992001,0,0,0.992001,1556.92,472.999)" d="M0,4.2 C0,8.5 3.1,13.3 11.2,13.3 C21.6,13.3 32.5,4.8 32.5,-4 C32.5,-9.9 27.5,-13.2 21.3,-13.2 C11.6,-13.2 0,-5 0,4.2"/>
<path class="Note" transform="matrix(0.992001,0,0,0.992001,1266.48,1443.25)" d="M0,4.2 C0,8.5 3.1,13.3 11.2,13.3 C21.6,13.3 32.5,4.8 32.5,-4 C32.5,-9.9 27.5,-13.2 21.3,-13.2 C11.6,-13.2 0,-5 0,4.2"/>
<path class="Note" transform="matrix(0.992001,0,0,0.992001,1006.14,472.999)" d="M0,4.2 C0,8.5 3.1,13.3 11.2,13.3 C21.6,13.3 32.5,4.8 32.5,-4 C32.5,-9.9 27.5,-13.2 21.3,-13.2 C11.6,-13.2 0,-5 0,4.2"/>
<path class="Note" transform="matrix(0.992001,0,0,0.992001,1556.92,705.053)" d="M0,4.2 C0,8.5 3.1,13.3 11.2,13.3 C21.6,13.3 32.5,4.8 32.5,-4 C32.5,-9.9 27.5,-13.2 21.3,-13.2 C11.6,-13.2 0,-5 0,4.2"/>
<path class="Note" transform="matrix(0.992001,0,0,0.992001,1266.48,1675.3)" d="M0,4.2 C0,8.5 3.1,13.3 11.2,13.3 C21.6,13.3 32.5,4.8 32.5,-4 C32.5,-9.9 27.5,-13.2 21.3,-13.2 C11.6,-13.2 0,-5 0,4.2"/>
<path class="Note" transform="matrix(0.992001,0,0,0.992001,2543.1,717.453)" d="M0,4.2 C0,8.5 3.1,13.3 11.2,13.3 C21.6,13.3 32.5,4.8 32.5,-4 C32.5,-9.9 27.5,-13.2 21.3,-13.2 C11.6,-13.2 0,-5 0,4.2"/>
<path class="Note" transform="matrix(0.992001,0,0,0.992001,752.404,705.053)" d="M0,4.2 C0,8.5 3.1,13.3 11.2,13.3 C21.6,13.3 32.5,4.8 32.5,-4 C32.5,-9.9 27.5,-13.2 21.3,-13.2 C11.6,-13.2 0,-5 0,4.2"/>
<path class="Note" transform="matrix(0.992001,0,0,0.992001,2443.94,717.453)" d="M0,4.2 C0,8.5 3.1,13.3 11.2,13.3 C21.6,13.3 32.5,4.8 32.5,-4 C32.5,-9.9 27.5,-13.2 21.3,-13.2 C11.6,-13.2 0,-5 0,4.2"/>
<path class="Note" transform="matrix(0.992001,0,0,0.992001,1398.3,1687.7)" d="M0,4.2 C0,8.5 3.1,13.3 11.2,13.3 C21.6,13.3 32.5,4.8 32.5,-4 C32.5,-9.9 27.5,-13.2 21.3,-13.2 C11.6,-13.2 0,-5 0,4.2"/>
<path class="Note" transform="matrix(0.992001,0,0,0.992001,1656.08,717.453)" d="M0,4.2 C0,8.5 3.1,13.3 11.2,13.3 C21.6,13.3 32.5,4.8 32.5,-4 C32.5,-9.9 27.5,-13.2 21.3,-13.2 C11.6,-13.2 0,-5 0,4.2"/>
<path class="Note" transform="matrix(0.992001,0,0,0.992001,653.243,705.053)" d="M0,4.2 C0,8.5 3.1,13.3 11.2,13.3 C21.6,13.3 32.5,4.8 32.5,-4 C32.5,-9.9 27.5,-13.2 21.3,-13.2 C11.6,-13.2 0,-5 0,4.2"/>
<path class="Clef" transform="matrix(0.992001,0,0,0.992001,424.617,460.599)" d="M12.3,51.3 C12.3,57.9 17.3,66.6 30.8,66.6 C35.5,66.6 39.6,65.4 43.2,63.2 C48.6,59.4 50,52.8 50,46.5 C50,42.6 49.4,38.1 48.4,32.4 C48.1,30.4 47.5,27.4 46.9,23.5 C56.7,20.3 64,10.1 64,-0.2 C64,-15.3 53.3,-25.5 38.7,-25.5 C37.7,-31.5 36.7,-37.4 35.9,-43 C46.4,-54.1 53.7,-66.6 53.7,-82.5 C53.7,-91.6 50.9,-99 49.3,-102.6 C46.9,-107.7 44,-111.2 42.2,-111.2 C41.5,-111.2 38.4,-110 35.1,-106.1 C28.7,-98.5 26.9,-85.7 26.9,-77.3 C26.9,-71.9 27.4,-67 29.1,-55.8 C29,-55.7 23.8,-50.4 21.7,-48.7 C12.6,-40.3 0,-28.1 0,-8.1 C0,10.6 16.3,25.3 34.9,25.3 C37.8,25.3 40.5,25 42.8,24.6 C44.7,34.2 45.9,41.2 45.9,46.5 C45.9,56.9 40.5,62.4 30.4,62.4 C28,62.4 25.9,61.9 25.7,61.9 C25.6,61.8 25.4,61.7 25.4,61.6 C25.4,61.4 25.6,61.3 25.9,61.3 C30.6,60.5 35.3,56.5 35.3,50.1 C35.3,44.7 31.2,39 23.7,39 C16.7,39 12.3,44.7 12.3,51.3 M33.2,-82.2 C34.1,-86.2 38.7,-96.7 43.9,-96.7 C45.4,-96.7 47.8,-91.9 47.8,-84.9 C47.8,-74.5 40.1,-66.7 33.2,-59.9 C32.6,-63.9 32.1,-67.8 32.1,-72 C32.1,-75.7 32.4,-79.1 33.2,-82.2 M42,20.6 C40,21 38.1,21.2 36.2,21.2 C21.9,21.2 9.7,11.2 9.7,-3.9 C9.7,-16.1 18.3,-27 27.1,-34.6 C28.8,-36.1 30.4,-37.5 31.9,-39 C32.8,-33.6 33.5,-28.9 34.2,-24.8 C25.1,-22.1 18.9,-12.5 18.9,-3.1 C18.9,3.9 24.4,13.5 32.4,13.5 C33.2,13.5 34.1,13.1 34.1,12.2 C34.1,11.3 33.1,10.8 31.9,10 C28,7.6 25.8,5 25.8,0.1 C25.8,-6 30.4,-10.9 36.2,-12.3 L42,20.6 M56.2,2.1 C56.2,9.2 53.3,16.5 46.2,19.4 C44.1,7.4 41.4,-8.5 40.7,-12.9 C49.7,-12.9 56.2,-6.8 56.2,2.1"/>
<path class="Clef" transform="matrix(0.992001,0,0,0.992001,424.617,1418.45)" d="M12.3,51.3 C12.3,57.9 17.3,66.6 30.8,66.6 C35.5,66.6 39.6,65.4 43.2,63.2 C48.6,59.4 50,52.8 50,46.5 C50,42.6 49.4,38.1 48.4,32.4 C48.1,30.4 47.5,27.4 46.9,23.5 C56.7,20.3 64,10.1 64,-0.2 C64,-15.3 53.3,-25.5 38.7,-25.5 C37.7,-31.5 36.7,-37.4 35.9,-43 C46.4,-54.1 53.7,-66.6 53.7,-82.5 C53.7,-91.6 50.9,-99 49.3,-102.6 C46.9,-107.7 44,-111.2 42.2,-111.2 C41.5,-111.2 38.4,-110 35.1,-106.1 C28.7,-98.5 26.9,-85.7 26.9,-77.3 C26.9,-71.9 27.4,-67 29.1,-55.8 C29,-55.7 23.8,-50.4 21.7,-48.7 C12.6,-40.3 0,-28.1 0,-8.1 C0,10.6 16.3,25.3 34.9,25.3 C37.8,25.3 40.5,25 42.8,24.6 C44.7,34.2 45.9,41.2 45.9,46.5 C45.9,56.9 40.5,62.4 30.4,62.4 C28,62.4 25.9,61.9 25.7,61.9 C25.6,61.8 25.4,61.7 25.4,61.6 C25.4,61.4 25.6,61.3 25.9,61.3 C30.6,60.5 35.3,56.5 35.3,50.1 C35.3,44.7 31.2,39 23.7,39 C16.7,39 12.3,44.7 12.3,51.3 M33.2,-82.2 C34.1,-86.2 38.7,-96.7 43.9,-96.7 C45.4,-96.7 47.8,-91.9 47.8,-84.9 C47.8,-74.5 40.1,-66.7 33.2,-59.9 C32.6,-63.9 32.1,-67.8 32.1,-72 C32.1,-75.7 32.4,-79.1 33.2,-82.2 M42,20.6 C40,21 38.1,21.2 36.2,21.2 C21.9,21.2 9.7,11.2 9.7,-3.9 C9.7,-16.1 18.3,-27 27.1,-34.6 C28.8,-36.1 30.4,-37.5 31.9,-39 C32.8,-33.6 33.5,-28.9 34.2,-24.8 C25.1,-22.1 18.9,-12.5 18.9,-3.1 C18.9,3.9 24.4,13.5 32.4,13.5 C33.2,13.5 34.1,13.1 34.1,12.2 C34.1,11.3 33.1,10.8 31.9,10 C28,7.6 25.8,5 25.8,0.1 C25.8,-6 30.4,-10.9 36.2,-12.3 L42,20.6 M56.2,2.1 C56.2,9.2 53.3,16.5 46.2,19.4 C44.1,7.4 41.4,-8.5 40.7,-12.9 C49.7,-12.9 56.2,-6.8 56.2,2.1"/>
<path class="Clef" transform="matrix(0.992001,0,0,0.992001,424.617,1700.1)" d="M25.4,-25.1 C17.8,-25.1 11.7,-20.7 11.6,-20.7 C5.7,-16.4 1.9,-9.8 1.9,-2.5 C1.9,5 6.2,10.2 13.7,10.2 C20.1,10.2 24.9,6 24.9,-0.7 C24.9,-6.4 19.9,-11.1 14.3,-11.1 C13.1,-11.1 12,-10.9 11.1,-10.6 C10.1,-10.2 8.4,-9.2 7.6,-8.5 C8.3,-12.9 11.3,-17.3 15.2,-19.4 C17.7,-20.8 20.9,-21.4 24.4,-21.4 C34.6,-21.4 39.6,-13.2 39.6,3.6 C39.6,16.6 31.3,35.3 21.5,44.1 C11.1,53.6 1.3,58.1 1.2,58.1 C1.2,58.1 0,58.8 0,60 C0,60.2 0.1,60.3 0.1,60.5 C0.4,61.5 1.3,61.7 2,61.7 L2.3,61.6 C2.5,61.6 13.9,56.8 23,49.7 C37.2,39.4 52.8,22.2 52.8,3.5 C52.8,-13.9 43.4,-25.1 25.4,-25.1 M56.8,-12.4 C56.8,-9.6 59,-7.4 61.6,-7.4 C64.2,-7.4 66.4,-9.6 66.4,-12.4 C66.4,-15.2 64.2,-17.5 61.6,-17.5 C59,-17.5 56.8,-15.2 56.8,-12.4 M56.8,12.3 C56.8,15.1 59,17.4 61.6,17.4 C64.2,17.4 66.4,15.1 66.4,12.3 C66.4,9.5 64.2,7.2 61.6,7.2 C59,7.2 56.8,9.5 56.8,12.3 M35.2,56 C35.2,52.4 31.6,50.8 28.5,50.8 C24.3,50.8 20.3,53.3 20.3,57.9 C20.3,59.8 20.9,61.2 22.4,62.6 C19.7,63.8 17.2,65.3 17.2,68.7 C17.2,72 20.2,74.2 24.6,74.2 C30,74.2 33.8,71.2 33.8,66.9 C33.8,64.7 32.7,62.7 30.9,61.4 C33.8,60.2 35.2,58.5 35.2,56.1 L35.2,56 M26.7,58.8 C25.1,57.9 24.7,57.3 24.7,56 C24.7,54.2 26,52.9 28,52.9 C30,52.9 31.1,54.1 31.1,56.2 C31.1,57.8 30.6,58.9 29,60.1 C27.6,59.4 27.2,59.1 26.8,58.9 L26.7,58.8 M24.2,64 C24.6,64.2 24.7,64.2 25,64.4 C26.2,65 26.2,65.1 26.4,65.2 C28.3,66.3 29.1,67.3 29.1,68.7 C29.1,70.6 27.4,72.1 25.2,72.1 C23,72.1 21.6,70.7 21.6,68.6 C21.6,66.7 22.5,65 24.2,64"/>
<path class="Clef" transform="matrix(0.992001,0,0,0.992001,424.617,742.253)" d="M25.4,-25.1 C17.8,-25.1 11.7,-20.7 11.6,-20.7 C5.7,-16.4 1.9,-9.8 1.9,-2.5 C1.9,5 6.2,10.2 13.7,10.2 C20.1,10.2 24.9,6 24.9,-0.7 C24.9,-6.4 19.9,-11.1 14.3,-11.1 C13.1,-11.1 12,-10.9 11.1,-10.6 C10.1,-10.2 8.4,-9.2 7.6,-8.5 C8.3,-12.9 11.3,-17.3 15.2,-19.4 C17.7,-20.8 20.9,-21.4 24.4,-21.4 C34.6,-21.4 39.6,-13.2 39.6,3.6 C39.6,16.6 31.3,35.3 21.5,44.1 C11.1,53.6 1.3,58.1 1.2,58.1 C1.2,58.1 0,58.8 0,60 C0,60.2 0.1,60.3 0.1,60.5 C0.4,61.5 1.3,61.7 2,61.7 L2.3,61.6 C2.5,61.6 13.9,56.8 23,49.7 C37.2,39.4 52.8,22.2 52.8,3.5 C52.8,-13.9 43.4,-25.1 25.4,-25.1 M56.8,-12.4 C56.8,-9.6 59,-7.4 61.6,-7.4 C64.2,-7.4 66.4,-9.6 66.4,-12.4 C66.4,-15.2 64.2,-17.5 61.6,-17.5 C59,-17.5 56.8,-15.2 56.8,-12.4 M56.8,12.3 C56.8,15.1 59,17.4 61.6,17.4 C64.2,17.4 66.4,15.1 66.4,12.3 C66.4,9.5 64.2,7.2 61.6,7.2 C59,7.2 56.8,9.5 56.8,12.3 M35.2,56 C35.2,52.4 31.6,50.8 28.5,50.8 C24.3,50.8 20.3,53.3 20.3,57.9 C20.3,59.8 20.9,61.2 22.4,62.6 C19.7,63.8 17.2,65.3 17.2,68.7 C17.2,72 20.2,74.2 24.6,74.2 C30,74.2 33.8,71.2 33.8,66.9 C33.8,64.7 32.7,62.7 30.9,61.4 C33.8,60.2 35.2,58.5 35.2,56.1 L35.2,56 M26.7,58.8 C25.1,57.9 24.7,57.3 24.7,56 C24.7,54.2 26,52.9 28,52.9 C30,52.9 31.1,54.1 31.1,56.2 C31.1,57.8 30.6,58.9 29,60.1 C27.6,59.4 27.2,59.1 26.8,58.9 L26.7,58.8 M24.2,64 C24.6,64.2 24.7,64.2 25,64.4 C26.2,65 26.2,65.1 26.4,65.2 C28.3,66.3 29.1,67.3 29.1,68.7 C29.1,70.6 27.4,72.1 25.2,72.1 C23,72.1 21.6,70.7 21.6,68.6 C21.6,66.7 22.5,65 24.2,64"/>
<path class="Rest" transform="matrix(0.992001,0,0,0.992001,2539.59,1393.65)" d="M0,-1 C0,0.4 0,0.4 1.4,0.4 L31.1,0.4 C32.5,0.4 32.5,0.4 32.5,-1 L32.5,-11.8 C32.5,-13.2 32.5,-13.2 31.1,-13.2 L1.4,-13.2 C0,-13.2 0,-13.2 0,-11.8 L0,-1 "/>
<path class="Rest" transform="matrix(0.992001,0,0,0.992001,1755.25,435.799)" d="M23,16.6 C22.9,16.5 22.7,16.3 22.4,15.9 L10.9,1.7 C10.8,1.6 10.7,1.3 10.7,1.1 C10.7,0.8 10.8,0.4 10.9,0.2 L21.1,-15.2 C21.2,-15.4 21.3,-15.7 21.3,-15.9 L21.3,-16.8 C21.3,-17.1 21.2,-17.4 21,-17.6 L4.8,-39.5 C4.8,-39.5 4.4,-40.1 3.8,-40.1 C3.5,-40.1 3.3,-40.1 3,-39.8 C2.6,-39.5 2.5,-39.1 2.5,-38.8 C2.5,-38.2 2.8,-37.7 2.8,-37.7 L10.4,-27.3 C10.6,-27 10.7,-26.6 10.7,-26.1 C10.7,-25.7 10.6,-25.2 10.4,-24.9 L0.3,-9.5 C0.2,-9.3 0.1,-8.9 0.1,-8.7 L0.1,-7.8 C0.1,-7.5 0.2,-7.2 0.4,-7 L11.6,6.9 C11.2,6.8 10.3,6.6 9.1,6.6 C4,6.6 0,10.8 0,15.9 C0,17.3 0.3,18.7 1.1,19.8 C3.2,23 10.7,32.5 10.7,32.5 C10.7,32.5 11.2,33.1 11.9,33.1 C12.1,33.1 12.3,33.1 12.5,32.9 C13,32.5 13.2,32.1 13.2,31.7 C13.2,31.3 13,31 12.9,30.8 C12.6,30.3 9.4,24.5 9.4,24.5 C9.4,24.5 8.7,23.1 8.7,21.3 C8.7,18.1 11.1,15.5 14.3,15.5 C15.6,15.5 16.7,15.9 17.5,16.4 L21.4,18.9 C21.4,18.9 21.8,19.1 22.2,19.1 C22.6,19.1 22.9,19 23.2,18.6 C23.4,18.3 23.5,18 23.5,17.7 C23.5,17.4 23.4,17.2 23.2,16.9 L23,16.6 "/>
<path class="Rest" transform="matrix(0.992001,0,0,0.992001,1530.12,1393.65)" d="M23,16.6 C22.9,16.5 22.7,16.3 22.4,15.9 L10.9,1.7 C10.8,1.6 10.7,1.3 10.7,1.1 C10.7,0.8 10.8,0.4 10.9,0.2 L21.1,-15.2 C21.2,-15.4 21.3,-15.7 21.3,-15.9 L21.3,-16.8 C21.3,-17.1 21.2,-17.4 21,-17.6 L4.8,-39.5 C4.8,-39.5 4.4,-40.1 3.8,-40.1 C3.5,-40.1 3.3,-40.1 3,-39.8 C2.6,-39.5 2.5,-39.1 2.5,-38.8 C2.5,-38.2 2.8,-37.7 2.8,-37.7 L10.4,-27.3 C10.6,-27 10.7,-26.6 10.7,-26.1 C10.7,-25.7 10.6,-25.2 10.4,-24.9 L0.3,-9.5 C0.2,-9.3 0.1,-8.9 0.1,-8.7 L0.1,-7.8 C0.1,-7.5 0.2,-7.2 0.4,-7 L11.6,6.9 C11.2,6.8 10.3,6.6 9.1,6.6 C4,6.6 0,10.8 0,15.9 C0,17.3 0.3,18.7 1.1,19.8 C3.2,23 10.7,32.5 10.7,32.5 C10.7,32.5 11.2,33.1 11.9,33.1 C12.1,33.1 12.3,33.1 12.5,32.9 C13,32.5 13.2,32.1 13.2,31.7 C13.2,31.3 13,31 12.9,30.8 C12.6,30.3 9.4,24.5 9.4,24.5 C9.4,24.5 8.7,23.1 8.7,21.3 C8.7,18.1 11.1,15.5 14.3,15.5 C15.6,15.5 16.7,15.9 17.5,16.4 L21.4,18.9 C21.4,18.9 21.8,19.1 22.2,19.1 C22.6,19.1 22.9,19 23.2,18.6 C23.4,18.3 23.5,18 23.5,17.7 C23.5,17.4 23.4,17.2 23.2,16.9 L23,16.6 "/>
<path class="Rest" transform="matrix(0.992001,0,0,0.992001,851.566,435.799)" d="M23,16.6 C22.9,16.5 22.7,16.3 22.4,15.9 L10.9,1.7 C10.8,1.6 10.7,1.3 10.7,1.1 C10.7,0.8 10.8,0.4 10.9,0.2 L21.1,-15.2 C21.2,-15.4 21.3,-15.7 21.3,-15.9 L21.3,-16.8 C21.3,-17.1 21.2,-17.4 21,-17.6 L4.8,-39.5 C4.8,-39.5 4.4,-40.1 3.8,-40.1 C3.5,-40.1 3.3,-40.1 3,-39.8 C2.6,-39.5 2.5,-39.1 2.5,-38.8 C2.5,-38.2 2.8,-37.7 2.8,-37.7 L10.4,-27.3 C10.6,-27 10.7,-26.6 10.7,-26.1 C10.7,-25.7 10.6,-25.2 10.4,-24.9 L0.3,-9.5 C0.2,-9.3 0.1,-8.9 0.1,-8.7 L0.1,-7.8 C0.1,-7.5 0.2,-7.2 0.4,-7 L11.6,6.9 C11.2,6.8 10.3,6.6 9.1,6.6 C4,6.6 0,10.8 0,15.9 C0,17.3 0.3,18.7 1.1,19.8 C3.2,23 10.7,32.5 10.7,32.5 C10.7,32.5 11.2,33.1 11.9,33.1 C12.1,33.1 12.3,33.1 12.5,32.9 C13,32.5 13.2,32.1 13.2,31.7 C13.2,31.3 13,31 12.9,30.8 C12.6,30.3 9.4,24.5 9.4,24.5 C9.4,24.5 8.7,23.1 8.7,21.3 C8.7,18.1 11.1,15.5 14.3,15.5 C15.6,15.5 16.7,15.9 17.5,16.4 L21.4,18.9 C21.4,18.9 21.8,19.1 22.2,19.1 C22.6,19.1 22.9,19 23.2,18.6 C23.4,18.3 23.5,18 23.5,17.7 C23.5,17.4 23.4,17.2 23.2,16.9 L23,16.6 "/>
<path class="Rest" transform="matrix(0.992001,0,0,0.992001,2642.26,435.799)" d="M23,16.6 C22.9,16.5 22.7,16.3 22.4,15.9 L10.9,1.7 C10.8,1.6 10.7,1.3 10.7,1.1 C10.7,0.8 10.8,0.4 10.9,0.2 L21.1,-15.2 C21.2,-15.4 21.3,-15.7 21.3,-15.9 L21.3,-16.8 C21.3,-17.1 21.2,-17.4 21,-17.6 L4.8,-39.5 C4.8,-39.5 4.4,-40.1 3.8,-40.1 C3.5,-40.1 3.3,-40.1 3,-39.8 C2.6,-39.5 2.5,-39.1 2.5,-38.8 C2.5,-38.2 2.8,-37.7 2.8,-37.7 L10.4,-27.3 C10.6,-27 10.7,-26.6 10.7,-26.1 C10.7,-25.7 10.6,-25.2 10.4,-24.9 L0.3,-9.5 C0.2,-9.3 0.1,-8.9 0.1,-8.7 L0.1,-7.8 C0.1,-7.5 0.2,-7.2 0.4,-7 L11.6,6.9 C11.2,6.8 10.3,6.6 9.1,6.6 C4,6.6 0,10.8 0,15.9 C0,17.3 0.3,18.7 1.1,19.8 C3.2,23 10.7,32.5 10.7,32.5 C10.7,32.5 11.2,33.1 11.9,33.1 C12.1,33.1 12.3,33.1 12.5,32.9 C13,32.5 13.2,32.1 13.2,31.7 C13.2,31.3 13,31 12.9,30.8 C12.6,30.3 9.4,24.5 9.4,24.5 C9.4,24.5 8.7,23.1 8.7,21.3 C8.7,18.1 11.1,15.5 14.3,15.5 C15.6,15.5 16.7,15.9 17.5,16.4 L21.4,18.9 C21.4,18.9 21.8,19.1 22.2,19.1 C22.6,19.1 22.9,19 23.2,18.6 C23.4,18.3 23.5,18 23.5,17.7 C23.5,17.4 23.4,17.2 23.2,16.9 L23,16.6 "/>
<path class="Rest" transform="matrix(0.992001,0,0,0.992001,2451.71,1393.65)" d="M26.7,-20.3 C26.6,-20.3 26.4,-20.4 26.3,-20.4 C25.7,-20.4 25.2,-20.1 25,-19.6 C22.7,-15 17.9,-8.8 12.5,-7.8 C13.6,-9.1 14.3,-10.7 14.3,-12.6 C14.3,-16.5 11.1,-19.7 7.2,-19.7 C3.2,-19.7 0,-16.5 0,-12.6 C0,-7.2 5.3,-4.7 10,-4.7 C15.3,-4.7 18.8,-7.2 22.2,-10.9 L10.8,24.7 L13.5,25.5 L27.5,-18.6 C27.6,-18.7 27.6,-18.9 27.6,-19.1 C27.6,-19.6 27.3,-20 26.7,-20.3"/>
<path class="Rest" transform="matrix(0.992001,0,0,0.992001,1172.24,742.253)" d="M1.4,-0.5 C0.6,-0.5 0,0.1 0,0.9 L0,11.7 C0,12.5 0.6,13.1 1.4,13.1 L31.1,13.1 C31.9,13.1 32.5,12.5 32.5,11.7 L32.5,0.9 C32.5,0.1 31.9,-0.5 31.1,-0.5 L1.4,-0.5 "/>
<path class="Rest" transform="matrix(0.992001,0,0,0.992001,1952.03,1700.1)" d="M1.4,-0.5 C0.6,-0.5 0,0.1 0,0.9 L0,11.7 C0,12.5 0.6,13.1 1.4,13.1 L31.1,13.1 C31.9,13.1 32.5,12.5 32.5,11.7 L32.5,0.9 C32.5,0.1 31.9,-0.5 31.1,-0.5 L1.4,-0.5 "/>
<path class="Rest" transform="matrix(0.992001,0,0,0.992001,1804.83,767.053)" d="M26.7,-20.3 C26.6,-20.3 26.4,-20.4 26.3,-20.4 C25.7,-20.4 25.2,-20.1 25,-19.6 C22.7,-15 17.9,-8.8 12.5,-7.8 C13.6,-9.1 14.3,-10.7 14.3,-12.6 C14.3,-16.5 11.1,-19.7 7.2,-19.7 C3.2,-19.7 0,-16.5 0,-12.6 C0,-7.2 5.3,-4.7 10,-4.7 C15.3,-4.7 18.8,-7.2 22.2,-10.9 L10.8,24.7 L13.5,25.5 L27.5,-18.6 C27.6,-18.7 27.6,-18.9 27.6,-19.1 C27.6,-19.6 27.3,-20 26.7,-20.3"/>
<path class="Rest" transform="matrix(0.992001,0,0,0.992001,552.477,767.053)" d="M23,16.6 C22.9,16.5 22.7,16.3 22.4,15.9 L10.9,1.7 C10.8,1.6 10.7,1.3 10.7,1.1 C10.7,0.8 10.8,0.4 10.9,0.2 L21.1,-15.2 C21.2,-15.4 21.3,-15.7 21.3,-15.9 L21.3,-16.8 C21.3,-17.1 21.2,-17.4 21,-17.6 L4.8,-39.5 C4.8,-39.5 4.4,-40.1 3.8,-40.1 C3.5,-40.1 3.3,-40.1 3,-39.8 C2.6,-39.5 2.5,-39.1 2.5,-38.8 C2.5,-38.2 2.8,-37.7 2.8,-37.7 L10.4,-27.3 C10.6,-27 10.7,-26.6 10.7,-26.1 C10.7,-25.7 10.6,-25.2 10.4,-24.9 L0.3,-9.5 C0.2,-9.3 0.1,-8.9 0.1,-8.7 L0.1,-7.8 C0.1,-7.5 0.2,-7.2 0.4,-7 L11.6,6.9 C11.2,6.8 10.3,6.6 9.1,6.6 C4,6.6 0,10.8 0,15.9 C0,17.3 0.3,18.7 1.1,19.8 C3.2,23 10.7,32.5 10.7,32.5 C10.7,32.5 11.2,33.1 11.9,33.1 C12.1,33.1 12.3,33.1 12.5,32.9 C13,32.5 13.2,32.1 13.2,31.7 C13.2,31.3 13,31 12.9,30.8 C12.6,30.3 9.4,24.5 9.4,24.5 C9.4,24.5 8.7,23.1 8.7,21.3 C8.7,18.1 11.1,15.5 14.3,15.5 C15.6,15.5 16.7,15.9 17.5,16.4 L21.4,18.9 C21.4,18.9 21.8,19.1 22.2,19.1 C22.6,19.1 22.9,19 23.2,18.6 C23.4,18.3 23.5,18 23.5,17.7 C23.5,17.4 23.4,17.2 23.2,16.9 L23,16.6 "/>
<path class="Rest" transform="matrix(0.992001,0,0,0.992001,1596.03,1724.9)" d="M26.7,-20.3 C26.6,-20.3 26.4,-20.4 26.3,-20.4 C25.7,-20.4 25.2,-20.1 25,-19.6 C22.7,-15 17.9,-8.8 12.5,-7.8 C13.6,-9.1 14.3,-10.7 14.3,-12.6 C14.3,-16.5 11.1,-19.7 7.2,-19.7 C3.2,-19.7 0,-16.5 0,-12.6 C0,-7.2 5.3,-4.7 10,-4.7 C15.3,-4.7 18.8,-7.2 22.2,-10.9 L10.8,24.7 L13.5,25.5 L27.5,-18.6 C27.6,-18.7 27.6,-18.9 27.6,-19.1 C27.6,-19.6 27.3,-20 26.7,-20.3"/>
<path class="Rest" transform="matrix(0.992001,0,0,0.992001,2075.92,742.253)" d="M1.4,-0.5 C0.6,-0.5 0,0.1 0,0.9 L0,11.7 C0,12.5 0.6,13.1 1.4,13.1 L31.1,13.1 C31.9,13.1 32.5,12.5 32.5,11.7 L32.5,0.9 C32.5,0.1 31.9,-0.5 31.1,-0.5 L1.4,-0.5 "/>
<path class="Rest" transform="matrix(0.992001,0,0,0.992001,901.147,767.053)" d="M26.7,-20.3 C26.6,-20.3 26.4,-20.4 26.3,-20.4 C25.7,-20.4 25.2,-20.1 25,-19.6 C22.7,-15 17.9,-8.8 12.5,-7.8 C13.6,-9.1 14.3,-10.7 14.3,-12.6 C14.3,-16.5 11.1,-19.7 7.2,-19.7 C3.2,-19.7 0,-16.5 0,-12.6 C0,-7.2 5.3,-4.7 10,-4.7 C15.3,-4.7 18.8,-7.2 22.2,-10.9 L10.8,24.7 L13.5,25.5 L27.5,-18.6 C27.6,-18.7 27.6,-18.9 27.6,-19.1 C27.6,-19.6 27.3,-20 26.7,-20.3"/>
<path class="Rest" transform="matrix(0.992001,0,0,0.992001,1134.66,1724.9)" d="M23,16.6 C22.9,16.5 22.7,16.3 22.4,15.9 L10.9,1.7 C10.8,1.6 10.7,1.3 10.7,1.1 C10.7,0.8 10.8,0.4 10.9,0.2 L21.1,-15.2 C21.2,-15.4 21.3,-15.7 21.3,-15.9 L21.3,-16.8 C21.3,-17.1 21.2,-17.4 21,-17.6 L4.8,-39.5 C4.8,-39.5 4.4,-40.1 3.8,-40.1 C3.5,-40.1 3.3,-40.1 3,-39.8 C2.6,-39.5 2.5,-39.1 2.5,-38.8 C2.5,-38.2 2.8,-37.7 2.8,-37.7 L10.4,-27.3 C10.6,-27 10.7,-26.6 10.7,-26.1 C10.7,-25.7 10.6,-25.2 10.4,-24.9 L0.3,-9.5 C0.2,-9.3 0.1,-8.9 0.1,-8.7 L0.1,-7.8 C0.1,-7.5 0.2,-7.2 0.4,-7 L11.6,6.9 C11.2,6.8 10.3,6.6 9.1,6.6 C4,6.6 0,10.8 0,15.9 C0,17.3 0.3,18.7 1.1,19.8 C3.2,23 10.7,32.5 10.7,32.5 C10.7,32.5 11.2,33.1 11.9,33.1 C12.1,33.1 12.3,33.1 12.5,32.9 C13,32.5 13.2,32.1 13.2,31.7 C13.2,31.3 13,31 12.9,30.8 C12.6,30.3 9.4,24.5 9.4,24.5 C9.4,24.5 8.7,23.1 8.7,21.3 C8.7,18.1 11.1,15.5 14.3,15.5 C15.6,15.5 16.7,15.9 17.5,16.4 L21.4,18.9 C21.4,18.9 21.8,19.1 22.2,19.1 C22.6,19.1 22.9,19 23.2,18.6 C23.4,18.3 23.5,18 23.5,17.7 C23.5,17.4 23.4,17.2 23.2,16.9 L23,16.6 "/>
<path class="Rest" transform="matrix(0.992001,0,0,0.992001,2343.18,767.053)" d="M23,16.6 C22.9,16.5 22.7,16.3 22.4,15.9 L10.9,1.7 C10.8,1.6 10.7,1.3 10.7,1.1 C10.7,0.8 10.8,0.4 10.9,0.2 L21.1,-15.2 C21.2,-15.4 21.3,-15.7 21.3,-15.9 L21.3,-16.8 C21.3,-17.1 21.2,-17.4 21,-17.6 L4.8,-39.5 C4.8,-39.5 4.4,-40.1 3.8,-40.1 C3.5,-40.1 3.3,-40.1 3,-39.8 C2.6,-39.5 2.5,-39.1 2.5,-38.8 C2.5,-38.2 2.8,-37.7 2.8,-37.7 L10.4,-27.3 C10.6,-27 10.7,-26.6 10.7,-26.1 C10.7,-25.7 10.6,-25.2 10.4,-24.9 L0.3,-9.5 C0.2,-9.3 0.1,-8.9 0.1,-8.7 L0.1,-7.8 C0.1,-7.5 0.2,-7.2 0.4,-7 L11.6,6.9 C11.2,6.8 10.3,6.6 9.1,6.6 C4,6.6 0,10.8 0,15.9 C0,17.3 0.3,18.7 1.1,19.8 C3.2,23 10.7,32.5 10.7,32.5 C10.7,32.5 11.2,33.1 11.9,33.1 C12.1,33.1 12.3,33.1 12.5,32.9 C13,32.5 13.2,32.1 13.2,31.7 C13.2,31.3 13,31 12.9,30.8 C12.6,30.3 9.4,24.5 9.4,24.5 C9.4,24.5 8.7,23.1 8.7,21.3 C8.7,18.1 11.1,15.5 14.3,15.5 C15.6,15.5 16.7,15.9 17.5,16.4 L21.4,18.9 C21.4,18.9 21.8,19.1 22.2,19.1 C22.6,19.1 22.9,19 23.2,18.6 C23.4,18.3 23.5,18 23.5,17.7 C23.5,17.4 23.4,17.2 23.2,16.9 L23,16.6 "/>
<path class="Rest" transform="matrix(0.992001,0,0,0.992001,1456.16,767.053)" d="M23,16.6 C22.9,16.5 22.7,16.3 22.4,15.9 L10.9,1.7 C10.8,1.6 10.7,1.3 10.7,1.1 C10.7,0.8 10.8,0.4 10.9,0.2 L21.1,-15.2 C21.2,-15.4 21.3,-15.7 21.3,-15.9 L21.3,-16.8 C21.3,-17.1 21.2,-17.4 21,-17.6 L4.8,-39.5 C4.8,-39.5 4.4,-40.1 3.8,-40.1 C3.5,-40.1 3.3,-40.1 3,-39.8 C2.6,-39.5 2.5,-39.1 2.5,-38.8 C2.5,-38.2 2.8,-37.7 2.8,-37.7 L10.4,-27.3 C10.6,-27 10.7,-26.6 10.7,-26.1 C10.7,-25.7 10.6,-25.2 10.4,-24.9 L0.3,-9.5 C0.2,-9.3 0.1,-8.9 0.1,-8.7 L0.1,-7.8 C0.1,-7.5 0.2,-7.2 0.4,-7 L11.6,6.9 C11.2,6.8 10.3,6.6 9.1,6.6 C4,6.6 0,10.8 0,15.9 C0,17.3 0.3,18.7 1.1,19.8 C3.2,23 10.7,32.5 10.7,32.5 C10.7,32.5 11.2,33.1 11.9,33.1 C12.1,33.1 12.3,33.1 12.5,32.9 C13,32.5 13.2,32.1 13.2,31.7 C13.2,31.3 13,31 12.9,30.8 C12.6,30.3 9.4,24.5 9.4,24.5 C9.4,24.5 8.7,23.1 8.7,21.3 C8.7,18.1 11.1,15.5 14.3,15.5 C15.6,15.5 16.7,15.9 17.5,16.4 L21.4,18.9 C21.4,18.9 21.8,19.1 22.2,19.1 C22.6,19.1 22.9,19 23.2,18.6 C23.4,18.3 23.5,18 23.5,17.7 C23.5,17.4 23.4,17.2 23.2,16.9 L23,16.6 "/>
<path class="Rest" transform="matrix(0.992001,0,0,0.992001,2691.85,767.053)" d="M26.7,-20.3 C26.6,-20.3 26.4,-20.4 26.3,-20.4 C25.7,-20.4 25.2,-20.1 25,-19.6 C22.7,-15 17.9,-8.8 12.5,-7.8 C13.6,-9.1 14.3,-10.7 14.3,-12.6 C14.3,-16.5 11.1,-19.7 7.2,-19.7 C3.2,-19.7 0,-16.5 0,-12.6 C0,-7.2 5.3,-4.7 10,-4.7 C15.3,-4.7 18.8,-7.2 22.2,-10.9 L10.8,24.7 L13.5,25.5 L27.5,-18.6 C27.6,-18.7 27.6,-18.9 27.6,-19.1 C27.6,-19.6 27.3,-20 26.7,-20.3"/>
<path class="Rest" transform="matrix(0.992001,0,0,0.992001,769.774,1700.1)" d="M1.4,-0.5 C0.6,-0.5 0,0.1 0,0.9 L0,11.7 C0,12.5 0.6,13.1 1.4,13.1 L31.1,13.1 C31.9,13.1 32.5,12.5 32.5,11.7 L32.5,0.9 C32.5,0.1 31.9,-0.5 31.1,-0.5 L1.4,-0.5 "/>
<path class="Rest" transform="matrix(0.992001,0,0,0.992001,2478.73,1700.1)" d="M1.4,-0.5 C0.6,-0.5 0,0.1 0,0.9 L0,11.7 C0,12.5 0.6,13.1 1.4,13.1 L31.1,13.1 C31.9,13.1 32.5,12.5 32.5,11.7 L32.5,0.9 C32.5,0.1 31.9,-0.5 31.1,-0.5 L1.4,-0.5 "/>
<path class="Breath" transform="matrix(0.992001,0,0,0.992001,1222.74,1331.65)" d="M5.7,0 C14.9,-6.4 19.1,-12.7 19.1,-19.9 C19.1,-27.5 14.7,-32.1 8,-32.1 C3.2,-32.1 0,-28.7 0,-24.7 C0,-20.4 3.7,-17.1 8,-17.1 C10.9,-17.1 12.3,-17.8 12.6,-17.9 C12.9,-18 13.1,-18.1 13.4,-18.1 C13.5,-18.1 13.7,-18.1 13.8,-18 C14,-17.9 14.1,-17.6 14.1,-17 C14.1,-12.7 10.2,-7.8 3.3,-3 L5.7,0 "/>
<path class="Breath" transform="matrix(0.992001,0,0,0.992001,1513.18,373.799)" d="M5.7,0 C14.9,-6.4 19.1,-12.7 19.1,-19.9 C19.1,-27.5 14.7,-32.1 8,-32.1 C3.2,-32.1 0,-28.7 0,-24.7 C0,-20.4 3.7,-17.1 8,-17.1 C10.9,-17.1 12.3,-17.8 12.6,-17.9 C12.9,-18 13.1,-18.1 13.4,-18.1 C13.5,-18.1 13.7,-18.1 13.8,-18 C14,-17.9 14.1,-17.6 14.1,-17 C14.1,-12.7 10.2,-7.8 3.3,-3 L5.7,0 "/>
<path class="Breath" transform="matrix(0.992001,0,0,0.992001,2400.2,373.799)" d="M5.7,0 C14.9,-6.4 19.1,-12.7 19.1,-19.9 C19.1,-27.5 14.7,-32.1 8,-32.1 C3.2,-32.1 0,-28.7 0,-24.7 C0,-20.4 3.7,-17.1 8,-17.1 C10.9,-17.1 12.3,-17.8 12.6,-17.9 C12.9,-18 13.1,-18.1 13.4,-18.1 C13.5,-18.1 13.7,-18.1 13.8,-18 C14,-17.9 14.1,-17.6 14.1,-17 C14.1,-12.7 10.2,-7.8 3.3,-3 L5.7,0 "/>
<path class="Breath" transform="matrix(0.992001,0,0,0.992001,609.502,373.799)" d="M5.7,0 C14.9,-6.4 19.1,-12.7 19.1,-19.9 C19.1,-27.5 14.7,-32.1 8,-32.1 C3.2,-32.1 0,-28.7 0,-24.7 C0,-20.4 3.7,-17.1 8,-17.1 C10.9,-17.1 12.3,-17.8 12.6,-17.9 C12.9,-18 13.1,-18.1 13.4,-18.1 C13.5,-18.1 13.7,-18.1 13.8,-18 C14,-17.9 14.1,-17.6 14.1,-17 C14.1,-12.7 10.2,-7.8 3.3,-3 L5.7,0 "/>
<path class="NoteDot" transform="matrix(0.992001,0,0,0.992001,2329.23,1505.25)" d="M0,0 C0,2.8 2.2,5 5,5 C7.8,5 10,2.8 10,0 C10,-2.8 7.8,-5 5,-5 C2.2,-5 0,-2.8 0,0"/>
<path class="NoteDot" transform="matrix(0.992001,0,0,0.992001,1442.93,1687.7)" d="M0,0 C0,2.8 2.2,5 5,5 C7.8,5 10,2.8 10,0 C10,-2.8 7.8,-5 5,-5 C2.2,-5 0,-2.8 0,0"/>
<path class="NoteDot" transform="matrix(0.992001,0,0,0.992001,1700.71,705.053)" d="M0,0 C0,2.8 2.2,5 5,5 C7.8,5 10,2.8 10,0 C10,-2.8 7.8,-5 5,-5 C2.2,-5 0,-2.8 0,0"/>
<path class="NoteDot" transform="matrix(0.992001,0,0,0.992001,797.029,705.053)" d="M0,0 C0,2.8 2.2,5 5,5 C7.8,5 10,2.8 10,0 C10,-2.8 7.8,-5 5,-5 C2.2,-5 0,-2.8 0,0"/>
<path class="NoteDot" transform="matrix(0.992001,0,0,0.992001,2587.73,705.053)" d="M0,0 C0,2.8 2.2,5 5,5 C7.8,5 10,2.8 10,0 C10,-2.8 7.8,-5 5,-5 C2.2,-5 0,-2.8 0,0"/>
<path class="Page" d="M237.798,236.906 L237.192,239.656 C236.697,241.856 236.368,242.571 235.928,242.846 C235.377,243.231 235.268,243.231 231.803,243.286 L221.188,243.286 C223.113,241.636 224.542,240.591 226.688,239.161 C234.442,234.156 236.037,232.946 237.632,230.911 C239.502,228.436 240.602,225.521 240.602,222.936 C240.602,217.051 234.827,212.596 227.072,212.596 C219.593,212.596 213.817,217.436 213.817,223.706 C213.817,227.556 215.963,230.031 219.262,230.031 C222.123,230.031 223.938,228.216 223.938,225.356 C223.938,222.991 222.893,221.616 220.363,220.406 C219.757,220.131 219.482,219.801 219.482,219.361 C219.482,217.601 222.452,215.731 225.202,215.731 C229.053,215.731 231.252,218.096 231.252,222.166 C231.252,226.731 229.493,229.976 223.662,236.191 C217.502,242.736 215.357,245.211 212.607,249.171 L212.607,251.756 C214.037,251.591 214.643,251.536 215.468,251.536 L236.148,251.536 C237.192,251.536 237.852,251.591 239.502,251.756 L240.768,236.906 L237.798,236.906 "/>
<path class="Bracket" transform="matrix(0.992001,0,0,0.992001,383.961,1443.25)" d="M3.1,-50 C5.7,-51.9 9,-55.8 9,-63 C9,-72 4.1,-81.3 4.1,-86.9 C4.1,-94.4 8.4,-98.6 8.6,-98.8 C8.7,-98.9 8.8,-99.1 8.8,-99.2 C8.8,-99.3 8.8,-99.4 8.7,-99.4 C8.6,-99.5 8.6,-99.5 8.5,-99.5 C8.4,-99.5 8.2,-99.4 8.1,-99.3 C7.9,-99.1 0.1,-93.7 0.1,-85.6 C0.1,-76.7 4.6,-70.6 4.6,-59 C4.6,-56.9 3.8,-53.3 0.2,-50.3 C0.1,-50.2 0,-50.1 0,-50 C0,-49.9 0.1,-49.8 0.2,-49.7 C3.8,-46.7 4.6,-43.1 4.6,-41 C4.6,-29.4 0.1,-23.3 0.1,-14.4 C0.1,-6.3 7.9,-0.9 8.1,-0.7 C8.2,-0.6 8.4,-0.5 8.5,-0.5 C8.6,-0.5 8.6,-0.5 8.7,-0.6 C8.8,-0.6 8.8,-0.7 8.8,-0.8 C8.8,-0.9 8.7,-1.1 8.6,-1.2 C8.4,-1.5 4.1,-5.6 4.1,-13.1 C4.1,-18.7 9,-28 9,-37 C9,-44.2 5.7,-48.1 3.1,-50"/>
<path class="Bracket" transform="matrix(0.992001,0,0,0.992001,383.961,485.399)" d="M3.1,-50 C5.7,-51.9 9,-55.8 9,-63 C9,-72 4.1,-81.3 4.1,-86.9 C4.1,-94.4 8.4,-98.6 8.6,-98.8 C8.7,-98.9 8.8,-99.1 8.8,-99.2 C8.8,-99.3 8.8,-99.4 8.7,-99.4 C8.6,-99.5 8.6,-99.5 8.5,-99.5 C8.4,-99.5 8.2,-99.4 8.1,-99.3 C7.9,-99.1 0.1,-93.7 0.1,-85.6 C0.1,-76.7 4.6,-70.6 4.6,-59 C4.6,-56.9 3.8,-53.3 0.2,-50.3 C0.1,-50.2 0,-50.1 0,-50 C0,-49.9 0.1,-49.8 0.2,-49.7 C3.8,-46.7 4.6,-43.1 4.6,-41 C4.6,-29.4 0.1,-23.3 0.1,-14.4 C0.1,-6.3 7.9,-0.9 8.1,-0.7 C8.2,-0.6 8.4,-0.5 8.5,-0.5 C8.6,-0.5 8.6,-0.5 8.7,-0.6 C8.8,-0.6 8.8,-0.7 8.8,-0.8 C8.8,-0.9 8.7,-1.1 8.6,-1.2 C8.4,-1.5 4.1,-5.6 4.1,-13.1 C4.1,-18.7 9,-28 9,-37 C9,-44.2 5.7,-48.1 3.1,-50"/>
</svg>
